<svg width="38" height="66" viewBox="0 0 38 66" fill="none" xmlns="http://www.w3.org/2000/svg">
<path d="M17.0603 4.78611L16.6577 4.23866C16.5507 4.09323 16.4029 3.98296 16.233 3.92193C15.7822 3.76 15.2831 3.9759 15.0925 4.41532L14.775 5.14734C14.7308 5.24922 14.6963 5.35505 14.6721 5.46341L14.2341 7.42129L13.1631 14.1891L12.8255 16.8336C12.4939 19.4316 12.5637 22.0652 13.0322 24.642L13.2939 26.0808C13.7841 28.7769 14.8545 31.3342 16.4309 33.5757L17.6286 35.2787C17.6693 35.3366 17.7033 35.3991 17.7297 35.4647C17.997 36.1292 18.8872 36.2473 19.3186 35.6757L23.0559 30.723C23.2688 30.4409 23.4471 30.1344 23.5871 29.8099L24.5078 27.6757C25.7692 24.7519 26.4304 21.6045 26.4522 18.4202L26.4606 17.1863C26.4681 16.0969 26.3672 15.0094 26.1596 13.9399L25.3325 9.67928C25.2617 9.31432 25.0858 8.978 24.8265 8.71162C24.5587 8.43653 24.3885 8.08424 24.2761 7.71717C24.2193 7.53207 24.1522 7.35168 24.0804 7.20831L23.864 6.77604C23.831 6.71012 23.7869 6.65039 23.7336 6.59948C23.435 6.31436 22.9486 6.38204 22.7392 6.73785L22.3019 7.48073L22.1728 5.66736L21.8423 4.12405C21.7922 3.88985 21.6484 3.68638 21.4443 3.56095C21.0211 3.30079 20.4666 3.444 20.2222 3.87652L19.8161 4.59552L19.4645 2.58385C19.443 2.46106 19.4119 2.34017 19.3714 2.22228L19.0899 1.40211C19.0166 1.18857 18.8442 1.02388 18.6275 0.960415C18.4043 0.895037 18.1632 0.945532 17.985 1.09498L17.7439 1.29716C17.4831 1.5159 17.3198 1.82929 17.2901 2.1684L17.0603 4.78611Z" fill="#F2EDE9"/>
<path d="M17.0603 4.78611L16.6577 4.23866C16.5507 4.09323 16.4029 3.98296 16.233 3.92193C15.7822 3.76 15.2831 3.9759 15.0925 4.41532L14.775 5.14734C14.7308 5.24922 14.6963 5.35505 14.6721 5.46341L14.2341 7.42129L13.1631 14.1891L12.8255 16.8336C12.4939 19.4316 12.5637 22.0652 13.0322 24.642L13.2939 26.0808C13.7841 28.7769 14.8545 31.3342 16.4309 33.5757L17.6286 35.2787C17.6693 35.3366 17.7033 35.3991 17.7297 35.4647V35.4647C17.997 36.1292 18.8872 36.2473 19.3186 35.6757L23.0559 30.723C23.2688 30.4409 23.4471 30.1344 23.5871 29.8099L24.5078 27.6757C25.7692 24.7519 26.4304 21.6045 26.4522 18.4202L26.4606 17.1863C26.4681 16.0969 26.3672 15.0094 26.1596 13.9399L25.3325 9.67928C25.2617 9.31432 25.0858 8.978 24.8265 8.71162V8.71162C24.5587 8.43653 24.3885 8.08424 24.2761 7.71717C24.2193 7.53207 24.1522 7.35168 24.0804 7.20831L23.864 6.77604C23.831 6.71012 23.7869 6.65039 23.7336 6.59948C23.435 6.31436 22.9486 6.38204 22.7392 6.73785L22.3019 7.48073M17.0603 4.78611L16.8818 10.1045L16.9015 16.4494M17.0603 4.78611L17.2901 2.1684C17.3198 1.82929 17.4831 1.5159 17.7439 1.29716L17.985 1.09498C18.1632 0.945532 18.4043 0.895037 18.6275 0.960415C18.8442 1.02388 19.0166 1.18857 19.0899 1.40211L19.3714 2.22228C19.4119 2.34017 19.443 2.46106 19.4645 2.58385L19.8161 4.59552M19.8161 4.59552L19.5322 9.47214L19.7026 14.1003L19.5017 16.3893M19.8161 4.59552L20.2222 3.87652C20.4666 3.444 21.0211 3.30079 21.4443 3.56095C21.6484 3.68638 21.7922 3.88985 21.8423 4.12405L22.1728 5.66736L22.3019 7.48073M22.3019 7.48073L22.3006 9.13849L22.334 9.75284C22.4587 12.0443 22.4205 14.3418 22.2198 16.6279" stroke="#626262" stroke-linecap="round"/>
<path d="M21.8274 24.3781L22.7212 19.1225L22.9046 15.3904L23.1483 12.6141C23.1744 12.3175 23.4111 12.0831 23.708 12.06C23.928 12.0429 24.1401 12.1462 24.2624 12.3299L24.4439 12.6026C24.5297 12.7315 24.5889 12.8761 24.6183 13.0281L24.9703 14.8509L24.7392 11.6062C24.721 11.3519 24.6846 11.0991 24.6301 10.85L24.3356 9.50347C24.2467 9.09708 24.3107 8.6722 24.5153 8.31C24.8415 7.73239 25.4753 7.39879 26.1361 7.4568L26.1955 7.46201L26.2996 6.27562C26.3216 6.02538 26.4306 5.79077 26.6077 5.6126C26.9192 5.29908 27.3911 5.20853 27.7966 5.38443L27.8524 5.40863C28.1816 5.55144 28.4264 5.83824 28.5158 6.18577L29.019 8.14234L29.0514 7.77301C29.0682 7.58194 29.2367 7.44064 29.4278 7.45741C29.5652 7.46947 29.6825 7.56176 29.7265 7.69253L30.4546 9.85414L31.1797 13.0894L31.55 14.4421C32.0281 16.189 32.2391 17.9982 32.1757 19.8083L31.6685 23.9445L31.5442 25.3605C31.4681 26.2271 31.3206 27.0859 31.1031 27.9282C30.8845 28.7746 30.5961 29.6014 30.2407 30.4001L29.8489 31.2806C29.1507 32.8499 28.3063 34.3501 27.3269 35.7612L26.8188 36.4934L24.8509 39.2039L24.2758 40.1146C22.7637 42.5091 21.4326 45.0134 20.2936 47.6063L20.0324 48.2724C19.8129 48.8324 19.6535 49.4142 19.5569 50.0079C19.4671 50.56 19.4321 51.1197 19.4525 51.6787L19.4809 52.4569C19.5147 53.3865 19.6279 54.3116 19.8192 55.222L20.1051 56.5825C20.384 57.977 20.18 59.4249 19.5268 60.688L19.4219 60.8908L18.6595 61.3217C18.3423 59.8788 18.2514 58.3954 18.3902 56.9247L18.451 56.2812C18.6366 55.1436 18.7299 53.9928 18.7299 52.8402L18.7299 52.3937C18.7299 50.7822 18.5456 49.1759 18.1807 47.6063L17.7644 46.8293C16.2096 43.9277 14.4278 41.1536 12.4356 38.5329L11.9296 37.839C10.2487 35.5344 8.89521 33.008 7.90772 30.3318L7.56791 29.43C7.25968 28.612 7.01989 27.7698 6.85102 26.9121C6.68296 26.0585 6.58571 25.1926 6.56026 24.323L6.51868 22.9021L6.2533 18.7434C6.29568 16.9268 6.51778 15.1188 6.91634 13.3459L7.18817 12.1368L7.78261 10.459L8.40858 8.49565L8.82413 7.37831C8.89228 7.19508 9.00256 7.03043 9.14606 6.89767L9.37418 6.68664C9.44831 6.61806 9.54476 6.57865 9.6457 6.5757C9.87636 6.56895 10.0688 6.75046 10.0756 6.98112L10.0843 7.28122L10.7007 5.3573C10.8102 5.01556 11.0713 4.74351 11.4083 4.62013L11.4654 4.59922C11.8804 4.44724 12.3462 4.56513 12.639 4.89627C12.8054 5.08446 12.9005 5.32502 12.9079 5.57611L12.9427 6.76655C13.6164 6.74684 14.2159 7.19119 14.3929 7.84148L14.4324 7.98652C14.4908 8.20087 14.5052 8.4248 14.4749 8.64488L14.2045 10.6088L13.7354 14.2143L14.2339 12.2541C14.2451 12.21 14.2595 12.1667 14.2769 12.1246L14.3512 11.9445C14.467 11.6639 14.7516 11.491 15.054 11.5176C15.4049 11.5484 15.6772 11.837 15.6875 12.1892L15.7661 14.8732L15.7317 18.6097L16.3178 23.9084L16.404 24.7406C16.6114 26.7434 17.7152 30.4154 18.6921 32.176L19.1208 31.4997C20.4942 29.3327 21.4149 26.9103 21.8274 24.3781Z" fill="#F2EDE9"/>
<path d="M18.1807 47.6063L17.7471 46.2661C17.0703 44.1745 16.77 41.9793 16.8603 39.7828V39.7828C16.9381 37.8901 17.3048 36.0204 17.9478 34.2386L18.6921 32.176M18.1807 47.6063L17.7644 46.8293C16.2096 43.9277 14.4278 41.1536 12.4356 38.5329V38.5329L11.9296 37.839C10.2487 35.5344 8.89521 33.008 7.90772 30.3318V30.3318L7.56791 29.43C7.25968 28.612 7.01989 27.7698 6.85102 26.9121C6.68296 26.0585 6.58571 25.1926 6.56026 24.323L6.51868 22.9021L6.2533 18.7434C6.29568 16.9268 6.51778 15.1188 6.91634 13.3459L7.18817 12.1368L7.78261 10.459L8.40858 8.49566L8.82413 7.37831C8.89228 7.19508 9.00256 7.03043 9.14606 6.89767L9.37418 6.68664C9.44831 6.61806 9.54476 6.57865 9.6457 6.5757C9.87636 6.56895 10.0688 6.75046 10.0756 6.98112L10.0843 7.28122M18.1807 47.6063V47.6063C18.5456 49.1759 18.7299 50.7822 18.7299 52.3937L18.7299 52.8402C18.7299 53.9928 18.6366 55.1436 18.451 56.2812V56.2812L18.3902 56.9247C18.2514 58.3954 18.3423 59.8789 18.6595 61.3217V61.3217L19.4219 60.8908L19.5268 60.688C20.18 59.4249 20.384 57.977 20.1051 56.5825V56.5825L19.8192 55.222C19.6279 54.3116 19.5147 53.3865 19.4809 52.4569L19.4525 51.6787C19.4321 51.1197 19.4671 50.56 19.5569 50.0079V50.0079C19.6535 49.4142 19.8129 48.8324 20.0324 48.2724L20.2936 47.6063V47.6063C21.4326 45.0134 22.7637 42.5091 24.2758 40.1146L24.8509 39.2039L26.8188 36.4934L27.3269 35.7612C28.3063 34.3501 29.1507 32.8499 29.8489 31.2806L30.2407 30.4001C30.5961 29.6014 30.8845 28.7746 31.1031 27.9282V27.9282C31.3206 27.0859 31.4681 26.2271 31.5442 25.3605L31.6685 23.9445L32.1757 19.8083V19.8083C32.2391 17.9982 32.0281 16.189 31.55 14.4421L31.1797 13.0894L30.4546 9.85414L29.7265 7.69253C29.6825 7.56176 29.5652 7.46947 29.4278 7.45741V7.45741C29.2367 7.44064 29.0682 7.58194 29.0514 7.77301L29.019 8.14234M18.6921 32.176L19.1208 31.4997C20.4942 29.3327 21.4149 26.9103 21.8274 24.3781V24.3781L22.7212 19.1225L22.9046 15.3904L23.1483 12.6142C23.1744 12.3175 23.4111 12.0831 23.708 12.06V12.06C23.928 12.0429 24.1401 12.1462 24.2624 12.3299L24.4439 12.6026C24.5296 12.7315 24.5889 12.8761 24.6183 13.0281L24.9703 14.8509M18.6921 32.176C17.7152 30.4154 16.6114 26.7434 16.404 24.7406L16.3178 23.9084L15.7317 18.6097L15.7661 14.8732L15.6875 12.1892C15.6772 11.837 15.4049 11.5484 15.054 11.5176C14.7516 11.491 14.467 11.6639 14.3512 11.9445L14.2769 12.1246C14.2595 12.1667 14.2451 12.21 14.2339 12.2541L13.7354 14.2143M24.9703 14.8509L25.1532 19.336L24.9146 22.0542L24.6886 24.6293M24.9703 14.8509L24.7392 11.6062C24.721 11.3519 24.6846 11.0991 24.6301 10.85L24.3356 9.50347C24.2467 9.09708 24.3107 8.6722 24.5153 8.31V8.31C24.8415 7.73239 25.4753 7.39879 26.1361 7.4568L26.1955 7.46201M26.1955 7.46201L26.996 9.83888V9.83888C27.4785 11.9914 27.7686 14.1982 27.8615 16.4022V16.4022V16.4022C27.9967 18.141 27.988 19.8881 27.8355 21.6255L27.7005 23.1637L27.5875 24.4512M26.1955 7.46201L26.2996 6.27562C26.3216 6.02538 26.4306 5.79077 26.6077 5.6126V5.6126C26.9192 5.29908 27.3911 5.20853 27.7966 5.38443L27.8524 5.40863C28.1816 5.55144 28.4264 5.83824 28.5158 6.18577L29.019 8.14234M29.019 8.14234L29.706 10.6129C29.9049 11.3283 30.0295 12.0622 30.0778 12.8032V12.8032C30.1113 13.3162 30.1813 13.8262 30.2874 14.3293L30.3664 14.7037C30.6808 16.1944 30.773 17.7233 30.6397 19.241V19.241L30.376 22.2452L30.2379 23.8189M13.7354 14.2143L13.2914 18.6811L13.3712 21.4086L13.4468 23.9924M13.7354 14.2143L14.2045 10.6088L14.4749 8.64488C14.5052 8.4248 14.4908 8.20087 14.4324 7.98652L14.3929 7.84148C14.2159 7.19119 13.6164 6.74684 12.9427 6.76655M12.9427 6.76655L12.0051 9.09275C11.398 11.2135 10.9799 13.3996 10.7587 15.5945C10.5226 17.3209 10.4646 19.067 10.5857 20.8053L10.6861 22.2469L10.7475 23.4195M12.9427 6.76655L12.9079 5.57611C12.9005 5.32502 12.8054 5.08446 12.639 4.89627C12.3462 4.56513 11.8804 4.44724 11.4654 4.59922L11.4083 4.62013C11.0713 4.74351 10.8102 5.01556 10.7007 5.3573L10.0843 7.28122M10.0843 7.28122L9.25458 9.70757C9.01432 10.4101 8.84717 11.1356 8.75579 11.8724C8.69251 12.3827 8.59286 12.8877 8.45762 13.3837L8.35696 13.7529C7.95621 15.2227 7.77517 16.7438 7.81974 18.2666L7.82424 18.4203C7.87993 20.3233 8.11495 22.2167 8.52618 24.0755M14.2336 7.42116L14.6716 5.46329C14.6959 5.35492 14.7303 5.24909 14.7745 5.14722L15.0921 4.4152C15.2827 3.97578 15.7817 3.75988 16.2325 3.92181C16.4024 3.98284 16.5503 4.0931 16.6572 4.23853L17.0598 4.78599M17.0598 4.78599L16.8813 10.1043L16.901 16.4492M17.0598 4.78599L17.2896 2.16828C17.3194 1.82917 17.4826 1.51578 17.7434 1.29704L17.9845 1.09485C18.1627 0.945408 18.4038 0.894913 18.627 0.960291C18.8437 1.02376 19.0161 1.18844 19.0894 1.40199L19.371 2.22215C19.4114 2.34004 19.4425 2.46094 19.464 2.58372L19.8156 4.5954M19.8156 4.5954L19.5317 9.47201L19.7021 14.1002L19.5012 16.3891M19.8156 4.5954L20.2218 3.8764C20.4661 3.44388 21.0207 3.30067 21.4438 3.56082C21.6479 3.68626 21.7917 3.88973 21.8418 4.12393L22.1723 5.66724L22.3015 7.48061M22.3015 7.48061L22.3001 9.13836L22.3335 9.75272C22.4582 12.0442 22.42 14.3416 22.2194 16.6277M22.3015 7.48061L22.7387 6.73773C22.9481 6.38192 23.4345 6.31423 23.7331 6.59935C23.7864 6.65026 23.8306 6.70999 23.8636 6.77592L24.0799 7.20819C24.2287 7.50542 24.3577 7.96183 24.4149 8.28926" stroke="#626262" stroke-linecap="round"/>
<path d="M16.4124 55.0092L17.0005 55.5355C18.1464 56.5607 18.8792 57.9559 19.0829 59.4612C19.1214 59.7451 19.0404 60.5912 18.9489 60.8627L18.3987 62.1007L17.0215 60.8844C16.3471 60.2889 15.6138 59.7639 14.8326 59.3176L9.94988 56.8762L8.01864 55.7174C7.39368 55.3425 6.81708 54.8923 6.30173 54.3769C5.76804 53.8432 5.30429 53.2439 4.92162 52.5934L4.58262 52.0171C4.23589 51.4276 3.93234 50.8139 3.67432 50.1806L2.48213 47.2543C2.29158 46.5874 2.19491 45.8971 2.19491 45.2035L2.19491 44.6778C2.19491 44.3856 2.22378 44.0942 2.28108 43.8076L1.90769 42.0843L1.47686 39.4993L1.18964 37.5606L1.08201 36.5381C1.05969 36.3261 1.15045 36.118 1.32098 35.9901C1.50453 35.8524 1.7501 35.8303 1.95532 35.9329L2.17334 36.0419C2.37341 36.1419 2.53417 36.3061 2.62993 36.5083L3.12838 37.5606L3.1635 37.1041C3.18791 36.7867 3.239 36.4719 3.31621 36.163L3.54175 35.2608C3.6005 35.0258 3.71156 34.8071 3.86663 34.621L4.16801 34.2594C4.28274 34.1217 4.45269 34.0421 4.6319 34.0421C4.89181 34.0421 5.12256 34.2084 5.20475 34.455L5.41878 35.0971C5.47122 35.2544 5.49795 35.4192 5.49795 35.585L5.49795 36.9143C6.0124 37.6626 6.28781 38.5493 6.28781 39.4574L6.28781 40.2174L6.28781 41.2944C6.59174 41.3379 6.83913 41.561 6.91359 41.8588L7.03322 42.3373C7.06274 42.4554 7.07767 42.5767 7.07767 42.6984L7.07767 44.1742C7.07767 44.9781 7.2024 45.7771 7.4474 46.5428C7.9535 48.1243 8.95286 49.5022 10.299 50.4744L10.8115 50.8445L13.6838 52.8551L16.4124 55.0092Z" fill="#F2EDE9"/>
<path d="M7.79572 52.7115L7.12255 51.8312C6.33454 50.8007 5.75856 49.6233 5.42843 48.3687C5.28364 47.8185 5.18697 47.2564 5.13973 46.6895C5.09142 46.1098 5.09486 45.5269 5.15001 44.9478L5.34058 42.9468C5.34974 42.8507 5.36712 42.7555 5.39253 42.6623L5.65158 41.7125C5.7279 41.4326 6.00066 41.2534 6.28781 41.2944M6.28781 41.2944L6.28781 40.2174L6.28781 39.4574C6.28781 38.5493 6.0124 37.6626 5.49795 36.9143M6.28781 41.2944C6.59174 41.3379 6.83913 41.561 6.91359 41.8588L7.03322 42.3373C7.06274 42.4554 7.07767 42.5767 7.07767 42.6984L7.07767 44.1742C7.07767 44.9781 7.2024 45.7771 7.4474 46.5428C7.9535 48.1243 8.95286 49.5022 10.299 50.4744L10.8115 50.8445L13.6838 52.8551L16.4124 55.0092L17.0005 55.5355C18.1464 56.5607 18.8792 57.9559 19.0829 59.4612C19.1214 59.7451 19.0404 60.5912 18.9489 60.8627C18.734 61.3461 18.6135 61.6172 18.3987 62.1007C17.985 61.7353 17.4685 61.2792 17.0215 60.8844C16.3471 60.2889 15.6138 59.7639 14.8326 59.3176V59.3176L9.94988 56.8762L8.01864 55.7174C7.39368 55.3425 6.81708 54.8923 6.30173 54.3769C5.76804 53.8432 5.30429 53.2439 4.92162 52.5934L4.58261 52.0171C4.23589 51.4276 3.93234 50.8139 3.67432 50.1806L2.48213 47.2543C2.29158 46.5874 2.19491 45.8971 2.19491 45.2035L2.19491 44.6778C2.19491 44.3856 2.22378 44.0942 2.28108 43.8076M6.28781 52.7115L5.65839 51.8502C5.17055 51.1826 4.77176 50.4543 4.47208 49.6837C4.1052 48.7403 3.89113 47.7444 3.83793 46.7336L3.77463 45.531L3.74116 44.8282C3.66787 43.289 3.72711 41.7464 3.91824 40.2174L4.34907 38.2068L4.67089 37.0805C4.77681 36.7097 5.25711 36.6133 5.49795 36.9143M5.49795 36.9143L5.49795 35.585C5.49795 35.4192 5.47122 35.2544 5.41878 35.0971L5.20475 34.455C5.12256 34.2084 4.89181 34.0421 4.6319 34.0421C4.45269 34.0421 4.28274 34.1217 4.16801 34.2594L3.86663 34.621C3.71156 34.8071 3.6005 35.0258 3.54175 35.2608L3.31621 36.163C3.239 36.4719 3.18791 36.7867 3.1635 37.1041L3.12838 37.5606M3.12838 37.5606L3.05658 38.494L2.76935 40.6482L2.48213 42.8024L2.28108 43.8076M3.12838 37.5606L2.62993 36.5083C2.53417 36.3061 2.37341 36.1419 2.17334 36.0419L1.95532 35.9329C1.7501 35.8303 1.50453 35.8524 1.32098 35.9901C1.15045 36.118 1.05969 36.3261 1.08201 36.5381L1.18964 37.5606L1.47686 39.4993L1.90769 42.0843L2.28108 43.8076" stroke="#626262" stroke-linecap="round"/>
<path d="M17.664 63.2945C17.664 63.2945 17.9993 62.54 18.2142 62.0565V62.0565C18.5803 61.2328 19.0185 60.443 19.5236 59.6964C19.7904 59.302 20.0513 58.9164 20.3928 58.4118C21.169 57.4803 22.07 56.5103 23.1057 55.8799L24.8445 54.8215L27.7167 52.8109L28.2292 52.4408C29.5754 51.4686 30.5748 50.0907 31.0809 48.5092C31.3259 47.7435 31.4506 46.9445 31.4506 46.1406L31.4506 44.6648C31.4506 44.5431 31.4655 44.4218 31.495 44.3037L31.6147 43.8252C31.6891 43.5274 31.9365 43.3043 32.2404 43.2608L32.2404 42.1838L32.2404 41.4238C32.2404 40.5157 32.5159 39.629 33.0303 38.8807L33.0303 37.5514C33.0303 37.3856 33.057 37.2208 33.1095 37.0635L33.3235 36.4214C33.4057 36.1748 33.6364 36.0085 33.8964 36.0085C34.0756 36.0085 34.2455 36.0881 34.3602 36.2258L34.6616 36.5874C34.8167 36.7735 34.9278 36.9922 34.9865 37.2272L35.2121 38.1294C35.2893 38.4383 35.3403 38.753 35.3648 39.0705L35.3999 39.527L35.8983 38.4747C35.9941 38.2725 36.1548 38.1083 36.3549 38.0083L36.5729 37.8993C36.7782 37.7967 37.0237 37.8188 37.2073 37.9565C37.3778 38.0844 37.4686 38.2925 37.4462 38.5045L37.3386 39.527L37.0514 41.4657L36.6206 44.0507L36.2472 45.774C36.3045 46.0606 36.3333 46.352 36.3333 46.6442L36.3333 47.1699C36.3333 47.8635 36.2367 48.5538 36.0461 49.2207L34.8539 52.147C34.5959 52.7803 34.2924 53.394 33.9456 53.9835L33.6066 54.5598C33.224 55.2103 32.7602 55.8096 32.2265 56.3433C31.7112 56.8587 31.1346 57.3089 30.5096 57.6838L28.5784 58.8426L24.2701 62.2892L22.0528 64.3679C21.9992 64.4181 21.9501 64.4729 21.9061 64.5317C21.6756 64.839 21.318 65.0248 20.9341 65.0368L16.9459 65.1614L17.664 63.2945Z" fill="#F2EDE9"/>
<path d="M30.7325 54.6779L31.4057 53.7976C32.1937 52.7671 32.7697 51.5897 33.0998 50.3351C33.2446 49.7849 33.3413 49.2228 33.3885 48.6559C33.4368 48.0762 33.4334 47.4933 33.3782 46.9142L33.1877 44.9132C33.1785 44.8171 33.1611 44.7219 33.1357 44.6287L32.8767 43.6789C32.8004 43.399 32.5276 43.2198 32.2404 43.2608M32.2404 43.2608L32.2404 42.1838L32.2404 41.4238C32.2404 40.5157 32.5159 39.629 33.0303 38.8807M32.2404 43.2608C31.9365 43.3043 31.6891 43.5274 31.6147 43.8252L31.495 44.3037C31.4655 44.4218 31.4506 44.5431 31.4506 44.6648L31.4506 46.1406C31.4506 46.9445 31.3259 47.7435 31.0809 48.5092C30.5748 50.0907 29.5754 51.4686 28.2292 52.4408L27.7167 52.8109L24.8445 54.8215L23.1057 55.8799C22.07 56.5103 21.169 57.4803 20.3928 58.4118C20.0513 58.9164 19.7904 59.302 19.5236 59.6964C19.0185 60.443 18.5803 61.2328 18.2142 62.0565V62.0565C17.9993 62.54 17.664 63.2945 17.664 63.2945L16.9459 65.1614L20.9341 65.0368C21.318 65.0248 21.6756 64.839 21.9061 64.5317C21.9501 64.4729 21.9992 64.4181 22.0528 64.3679L24.2701 62.2892L28.5784 58.8426L30.5096 57.6838C31.1346 57.3089 31.7112 56.8587 32.2265 56.3433C32.7602 55.8096 33.224 55.2103 33.6066 54.5598L33.9456 53.9835C34.2924 53.394 34.5959 52.7803 34.8539 52.147L36.0461 49.2207C36.2367 48.5538 36.3333 47.8635 36.3333 47.1699L36.3333 46.6442C36.3333 46.352 36.3045 46.0606 36.2472 45.774M32.2404 54.6779L32.8699 53.8166C33.3577 53.149 33.7565 52.4207 34.0562 51.6501C34.4231 50.7067 34.6371 49.7108 34.6903 48.7L34.7536 47.4974L34.7871 46.7946C34.8604 45.2554 34.8011 43.7128 34.61 42.1838L34.1792 40.1732L33.8574 39.0468C33.7514 38.6761 33.2711 38.5797 33.0303 38.8807M33.0303 38.8807L33.0303 37.5514C33.0303 37.3856 33.057 37.2208 33.1095 37.0635L33.3235 36.4214C33.4057 36.1748 33.6364 36.0085 33.8964 36.0085C34.0756 36.0085 34.2455 36.0881 34.3602 36.2258L34.6616 36.5874C34.8167 36.7735 34.9278 36.9922 34.9865 37.2272L35.2121 38.1294C35.2893 38.4383 35.3403 38.753 35.3648 39.0705L35.3999 39.527M35.3999 39.527L35.4717 40.4604L35.7589 42.6146L36.0461 44.7688L36.2472 45.774M35.3999 39.527L35.8983 38.4747C35.9941 38.2725 36.1548 38.1083 36.3549 38.0083L36.5729 37.8993C36.7782 37.7967 37.0237 37.8188 37.2073 37.9565C37.3778 38.0844 37.4686 38.2925 37.4462 38.5045L37.3386 39.527L37.0514 41.4657L36.6206 44.0507L36.2472 45.774" stroke="#626262" stroke-linecap="round"/>
</svg>
