<svg width="210" height="90" viewBox="0 0 210 90" fill="none" xmlns="http://www.w3.org/2000/svg">
<path d="M102.082 12.5638L102.4 11.1379C102.418 11.059 102.443 10.9818 102.475 10.9077L102.706 10.3745C102.844 10.0545 103.207 9.89728 103.534 10.0152C103.657 10.0597 103.764 10.14 103.842 10.2459L104.135 10.6446M104.135 10.6446L104.005 14.518L104.019 19.139M104.135 10.6446L104.301 8.73811C104.323 8.49114 104.441 8.26289 104.631 8.10358L104.805 7.95632C104.935 7.84749 105.11 7.81071 105.272 7.85833C105.429 7.90455 105.555 8.02449 105.608 8.18002L105.812 8.77735C105.841 8.86321 105.864 8.95125 105.88 9.04068L106.135 10.5058M106.135 10.5058L105.929 14.0575L106.052 17.4282L105.906 19.0952M106.135 10.5058L106.43 9.98214C106.607 9.66713 107.009 9.56284 107.317 9.75231C107.465 9.84367 107.569 9.99185 107.606 10.1624L107.846 11.2864L107.94 12.6072M107.94 12.6072L107.939 13.8145L107.962 14.2619C108.053 15.9308 108.026 17.604 107.88 19.269M107.94 12.6072L108.257 12.066C108.409 11.807 108.762 11.7577 108.979 11.9653C109.018 12.0023 109.049 12.0459 109.074 12.0938L109.231 12.4087C109.339 12.6252 109.432 12.9575 109.474 13.196" stroke="#776B5D" stroke-width="0.5" stroke-linecap="round"/>
<path d="M104.437 41.1096L104.316 40.5426C104.034 39.2208 103.918 37.8683 103.973 36.5174C104.041 34.8843 104.356 33.271 104.909 31.7337L105.319 30.5931M104.437 41.1096C103.448 39.1014 102.27 37.1926 100.918 35.4091L100.777 35.2229L100.41 34.7176C99.1895 33.0391 98.207 31.1991 97.4902 29.25L97.2435 28.5932C97.0197 27.9975 96.8456 27.3841 96.723 26.7594C96.601 26.1377 96.5304 25.5071 96.5119 24.8737L96.4817 23.8389L96.2891 20.8101C96.3199 19.487 96.4811 18.1703 96.7704 16.8791L96.9678 15.9984L97.3993 14.7766L97.8538 13.3466L98.1554 12.5329C98.2049 12.3994 98.2849 12.2795 98.3891 12.1828L98.5547 12.0291C98.6086 11.9792 98.6785 11.9505 98.7518 11.9483C98.9193 11.9434 99.0589 12.0755 99.0638 12.2436L99.0702 12.4621M104.437 41.1096C105.039 42.7245 105.347 44.4343 105.347 46.1581V46.9043L105.221 47.8682L105.058 48.5512M105.319 30.5931L105.63 30.1006C106.627 28.5224 107.296 26.7581 107.595 24.9139L108.244 21.0863L108.377 18.3681L108.554 16.3461C108.573 16.13 108.744 15.9593 108.96 15.9426C109.12 15.9301 109.274 16.0053 109.363 16.1391L109.495 16.3378C109.557 16.4316 109.6 16.537 109.621 16.6476L109.877 17.9752M105.319 30.5931C104.61 29.3109 103.808 26.6365 103.658 25.1779L103.595 24.5718L103.17 20.7128L103.195 17.9914L103.138 16.0367C103.13 15.7802 102.933 15.5699 102.678 15.5475C102.459 15.5282 102.252 15.6541 102.168 15.8585L102.114 15.9896C102.101 16.0202 102.091 16.0518 102.082 16.0839L101.721 17.5115M99.0702 12.4621L99.5177 11.0609C99.5972 10.8121 99.7867 10.614 100.031 10.5241L100.073 10.5088C100.374 10.3982 100.712 10.484 100.925 10.7251C101.046 10.8622 101.115 11.0375 101.12 11.2203L101.145 12.0873M99.0702 12.4621L98.4679 14.2293C98.2935 14.741 98.1721 15.2693 98.1058 15.8059C98.0598 16.1776 97.9875 16.5454 97.8894 16.9066L97.8163 17.1756C97.5253 18.246 97.3939 19.3538 97.4262 20.4628L97.4295 20.5748C97.47 21.9607 97.6406 23.3398 97.9391 24.6935M109.877 17.9752L110.009 21.2417L109.836 23.2213L109.672 25.0968M109.877 17.9752L109.709 15.612C109.695 15.4268 109.669 15.2427 109.63 15.0613L109.416 14.0806C109.352 13.7846 109.398 13.4752 109.547 13.2114C109.783 12.7907 110.243 12.5477 110.723 12.59L110.766 12.5939M101.721 17.5115L101.398 20.7647L101.456 22.7512L101.511 24.633M101.721 17.5115L102.061 14.8856L102.258 13.4553C102.279 13.295 102.269 13.1319 102.227 12.9758L102.198 12.8702C102.069 12.3966 101.634 12.073 101.145 12.0873M110.766 12.5939L111.347 14.3249C111.698 15.8926 111.908 17.4998 111.976 19.1049C112.074 20.3714 112.068 21.6438 111.957 22.9092L111.859 24.0295L111.777 24.9671M110.766 12.5939L110.841 11.7298C110.858 11.5475 110.937 11.3766 111.066 11.2469C111.292 11.0185 111.634 10.9526 111.928 11.0807L111.969 11.0983C112.208 11.2023 112.386 11.4112 112.451 11.6643L112.816 13.0893M112.816 13.0893L113.314 14.8887C113.459 15.4096 113.55 15.9442 113.585 16.4838C113.609 16.8575 113.66 17.2289 113.736 17.5953L113.793 17.868C114.022 18.9536 114.089 20.0672 113.992 21.1725L113.801 23.3605L113.701 24.5066M112.816 13.0893L112.839 12.8203C112.852 12.6812 112.974 12.5782 113.113 12.5905C113.212 12.5993 113.297 12.6665 113.33 12.7617L113.858 14.336L114.385 16.6922L114.653 17.6774C115 18.9497 115.153 20.2674 115.108 21.5857L114.74 24.5981L114.649 25.6293C114.594 26.2606 114.487 26.8861 114.329 27.4995C114.17 28.1159 113.961 28.7181 113.703 29.2998L113.418 29.941C112.912 31.0839 112.298 32.1765 111.587 33.2043L111.218 33.7375L109.79 35.7117L109.372 36.3748C108.274 38.1189 107.309 39.9427 106.481 41.8311L106.292 42.3163C106.133 42.7241 106.017 43.1478 105.947 43.5802C105.882 43.9824 105.856 44.3899 105.871 44.7971L105.892 45.3638C105.916 46.0409 105.998 46.7147 106.138 47.3777L106.345 48.3685L106.631 49.4401M101.145 12.0873L100.465 13.7814C100.024 15.3261 99.7203 16.9183 99.5598 18.5167C99.3884 19.7741 99.3463 21.0458 99.4342 22.3118L99.5071 23.3617L99.5517 24.2157M102.082 12.5641L102.4 11.1381C102.418 11.0593 102.443 10.9821 102.475 10.9079L102.705 10.3748C102.844 10.0548 103.206 9.89753 103.533 10.0155C103.656 10.0599 103.764 10.1402 103.842 10.2461L104.135 10.6448M104.135 10.6448L104.004 14.5182L104.019 19.1392M104.135 10.6448L104.301 8.73836C104.322 8.49138 104.441 8.26314 104.63 8.10383L104.805 7.95657C104.935 7.84773 105.11 7.81096 105.272 7.85857C105.429 7.90479 105.555 8.02474 105.608 8.18027L105.811 8.77759C105.841 8.86345 105.863 8.9515 105.88 9.04092L106.135 10.5061M106.135 10.5061L105.929 14.0577L106.052 17.4284L105.906 19.0955M106.135 10.5061L106.429 9.98239C106.607 9.66738 107.009 9.56308 107.317 9.75256C107.465 9.84391 107.569 9.9921 107.606 10.1627L107.845 11.2867L107.939 12.6074M107.939 12.6074L107.938 13.8147L107.962 14.2621C108.053 15.931 108.026 17.6043 107.88 19.2693M107.939 12.6074L108.257 12.0663C108.409 11.8072 108.762 11.7579 108.979 11.9655C109.018 12.0026 109.049 12.0461 109.074 12.0942L109.231 12.4089C109.339 12.6255 109.432 12.9578 109.473 13.1963" stroke="#776B5D" stroke-width="0.5" stroke-linecap="round"/>
<path d="M97.4088 45.5492L96.9201 44.9081C96.348 44.1576 95.9299 43.3 95.6903 42.3863C95.5852 41.9856 95.5149 41.5762 95.4807 41.1633C95.4456 40.7412 95.4481 40.3166 95.4881 39.8949L95.6265 38.4376C95.6332 38.3675 95.6457 38.2982 95.6642 38.2304L95.8523 37.5386C95.9076 37.3348 96.1057 37.2043 96.3142 37.2341M96.3142 37.2341V36.4497V35.8962C96.3142 35.2348 96.1141 34.589 95.7407 34.044M96.3142 37.2341C96.5348 37.2657 96.7144 37.4282 96.7684 37.6452L96.8553 37.9936C96.8767 38.0796 96.8875 38.168 96.8875 38.2567V39.3314C96.8875 39.9169 96.9781 40.4989 97.1559 41.0565C97.5233 42.2084 98.2488 43.2119 99.226 43.9199L99.5981 44.1895L101.683 45.6537L103.664 47.2227L104.091 47.6059C104.923 48.3526 105.455 49.3687 105.602 50.465C105.622 50.6057 105.6 50.9359 105.564 51.195M95.7407 34.044C95.5659 33.8248 95.2173 33.895 95.1403 34.165L94.9067 34.9854L94.5939 36.4497C94.4551 37.5632 94.4122 38.6867 94.4653 39.8077L94.4897 40.3196L94.5357 41.1955C94.5742 41.9316 94.7297 42.6569 94.9959 43.344C95.2136 43.9053 95.503 44.4357 95.8572 44.9219L96.3142 45.5492M95.7407 34.044V33.0758C95.7407 32.9551 95.7214 32.8351 95.6832 32.7205L95.5279 32.2529C95.4682 32.0733 95.3007 31.9521 95.1121 31.9521C94.9819 31.9521 94.8585 32.0101 94.7752 32.1105L94.5565 32.3738C94.4439 32.5093 94.3633 32.6687 94.3206 32.8398L94.1569 33.4969C94.1008 33.7218 94.0638 33.9511 94.0461 34.1822L94.0206 34.5147M94.0206 34.5147L93.9684 35.1945L93.7599 36.7635L93.5514 38.3323L93.4054 39.0645M94.0206 34.5147L93.6587 33.7483C93.5892 33.6011 93.4724 33.4814 93.3273 33.4086L93.169 33.3293C93.02 33.2545 92.8417 33.2706 92.7085 33.3709C92.5846 33.464 92.5188 33.6156 92.535 33.77L92.6132 34.5147L92.8216 35.9267L93.1344 37.8093L93.4054 39.0645M93.4054 39.0645C93.3639 39.2731 93.3429 39.4855 93.3429 39.6982V40.0811C93.3429 40.5862 93.4131 41.089 93.5514 41.5747L94.4169 43.7059C94.6042 44.1672 94.8246 44.6141 95.0763 45.0435L95.3224 45.4632C95.6002 45.9369 95.9368 46.3734 96.3243 46.7622C96.6984 47.1375 97.1169 47.4654 97.5706 47.7385L98.9726 48.5824L102.518 50.3604C103.082 50.6844 103.591 51.0965 104.045 51.5655C104.316 51.8471 104.631 52.1639 104.909 52.4217" stroke="#776B5D" stroke-width="0.5" stroke-linecap="round"/>
<path d="M114.06 46.9813L114.548 46.3402C115.121 45.5897 115.539 44.7321 115.778 43.8184C115.883 43.4177 115.954 43.0083 115.987 42.5954C116.023 42.1732 116.02 41.7488 115.98 41.327L115.842 39.8697C115.835 39.7996 115.823 39.7303 115.804 39.6624L115.616 38.9706C115.561 38.7669 115.362 38.6363 115.154 38.6661M115.154 38.6661V37.8817V37.3283C115.154 36.6669 115.354 36.0211 115.727 35.4762M115.154 38.6661C114.933 38.6979 114.754 38.8604 114.7 39.0773L114.613 39.4257C114.592 39.5117 114.58 39.6001 114.58 39.6887V40.7636C114.58 41.3491 114.491 41.931 114.312 42.4886C113.945 43.6404 113.22 44.6439 112.242 45.352L111.87 45.6216L109.785 47.0859L108.523 47.8567C107.771 48.3159 107.117 49.0223 106.554 49.7007C106.306 50.0682 106.116 50.3491 105.923 50.6364C105.556 51.18 105.238 51.7553 104.972 52.3551C104.817 52.7073 104.573 53.2568 104.573 53.2568L104.051 54.6165L106.946 54.5258C107.225 54.517 107.484 54.3817 107.653 54.1579C107.684 54.1151 107.72 54.0752 107.759 54.0386L109.368 52.5247L112.496 50.0144L113.897 49.1706C114.351 48.8974 114.77 48.5695 115.144 48.1943C115.532 47.8055 115.868 47.369 116.146 46.8953L116.392 46.4755C116.644 46.0463 116.864 45.5992 117.052 45.138L117.917 43.0068C118.056 42.521 118.126 42.0183 118.126 41.5132V41.1303C118.126 40.9175 118.105 40.7053 118.063 40.4965M115.727 35.4762C115.903 35.2569 116.251 35.3271 116.328 35.5971L116.562 36.4175L116.874 37.8817C117.013 38.9954 117.057 40.1188 117.003 41.2398L116.979 41.7517L116.933 42.6276C116.895 43.3637 116.739 44.0891 116.473 44.7761C116.255 45.3374 115.966 45.8678 115.611 46.354L115.154 46.9813M115.727 35.4762V34.5079C115.727 34.3872 115.747 34.2672 115.785 34.1526L115.94 33.685C116.001 33.5054 116.168 33.3843 116.356 33.3843C116.487 33.3843 116.61 33.4423 116.693 33.5425L116.912 33.8059C117.025 33.9415 117.106 34.1007 117.147 34.2719L117.312 34.929C117.368 35.1539 117.404 35.3832 117.423 35.6143L117.448 35.9468M118.063 40.4965L117.917 39.7645L117.708 38.1955L117.5 36.6266L117.448 35.9468M118.063 40.4965L118.334 39.2414L118.647 37.3588L118.855 35.9468L118.933 35.2021C118.95 35.0477 118.883 34.8962 118.76 34.803C118.627 34.7028 118.448 34.6866 118.299 34.7614L118.141 34.8407C117.996 34.9136 117.879 35.0332 117.81 35.1804L117.448 35.9468" stroke="#776B5D" stroke-width="0.5" stroke-linecap="round"/>
<path d="M69.48 68.6864C68.3927 68.6864 67.539 68.3482 66.9192 67.6718C66.2994 66.9846 65.9895 65.9591 65.9895 64.5955C65.9895 63.2209 66.2886 62.1409 66.8866 61.3555C67.4847 60.57 68.3003 60.1773 69.3332 60.1773C70.2684 60.1773 70.9861 60.5046 71.4862 61.1591C71.9974 61.8027 72.2528 62.7191 72.2528 63.9082C72.2528 64.1155 72.242 64.2846 72.2202 64.4155C72.1985 64.5464 72.1822 64.6282 72.1713 64.6609H67.2291C67.2291 66.8646 68.023 67.9664 69.6105 67.9664C70.0455 67.9664 70.4152 67.89 70.7196 67.7373C71.035 67.5737 71.2797 67.4046 71.4536 67.23C71.6276 67.0446 71.7146 66.9355 71.7146 66.9027L72.1876 67.2955C72.1876 67.3391 72.0843 67.4809 71.8777 67.7209C71.6712 67.95 71.3667 68.1682 70.9643 68.3755C70.562 68.5828 70.0672 68.6864 69.48 68.6864ZM71.1437 63.9736L71.16 63.6627C71.16 61.8082 70.5511 60.8809 69.3332 60.8809C68.6917 60.8809 68.197 61.1373 67.849 61.65C67.501 62.1519 67.2999 62.9264 67.2455 63.9736H71.1437ZM77.807 60.3409H78.7857L78.9325 61.2082C79.1173 60.99 79.4001 60.7664 79.7806 60.5373C80.1612 60.2973 80.6451 60.1773 81.2323 60.1773C81.6781 60.1773 82.0369 60.2591 82.3088 60.4227C82.5915 60.5754 82.8035 60.8264 82.9449 61.1755C83.1189 60.9682 83.407 60.75 83.8094 60.5209C84.2117 60.2918 84.7174 60.1773 85.3262 60.1773C86.0113 60.1773 86.5115 60.3573 86.8268 60.7173C87.1421 61.0773 87.2998 61.6773 87.2998 62.5173V68.5227H86.1092V62.6482C86.1092 62.0154 86.0113 61.59 85.8156 61.3718C85.6198 61.1427 85.3099 61.0282 84.8859 61.0282C84.4401 61.0282 84.0649 61.1318 83.7604 61.3391C83.4668 61.5355 83.2494 61.7318 83.108 61.9282C83.1297 62.1682 83.1406 62.3591 83.1406 62.5009V68.5227H81.9499V62.6482C81.9499 62.0264 81.8521 61.6009 81.6563 61.3718C81.4715 61.1427 81.1724 61.0282 80.7593 61.0282C80.3026 61.0282 79.9165 61.1318 79.6012 61.3391C79.2967 61.5464 79.0902 61.7373 78.9814 61.9118V68.5227H77.807V60.3409ZM93.4328 60.3409H94.4114L94.5582 61.3227C94.7105 61.0827 94.9715 60.8318 95.3411 60.57C95.7109 60.3082 96.2219 60.1773 96.8743 60.1773C97.8312 60.1773 98.5924 60.5319 99.1578 61.2409C99.7342 61.95 100.022 62.9373 100.022 64.2027C100.022 65.5773 99.7342 66.6682 99.1578 67.4755C98.5815 68.2827 97.766 68.6864 96.7112 68.6864C96.2654 68.6864 95.8849 68.6319 95.5695 68.5227C95.2651 68.4028 95.0312 68.2773 94.8681 68.1464C94.705 68.0045 94.6234 67.9227 94.6234 67.9009H94.6071V72.6136L93.4328 72.6464V60.3409ZM96.3198 67.9009C97.1679 67.9009 97.7877 67.601 98.1792 67.0009C98.5706 66.39 98.7664 65.4682 98.7664 64.2355C98.7664 63.09 98.5706 62.2609 98.1792 61.7482C97.7877 61.2355 97.2223 60.9791 96.4829 60.9791C96.0914 60.9791 95.7544 61.0609 95.4716 61.2246C95.1889 61.3882 94.9715 61.5682 94.8192 61.7646C94.6779 61.95 94.6071 62.0591 94.6071 62.0918V67.1809C94.7268 67.3336 94.9225 67.4918 95.1943 67.6555C95.4771 67.8191 95.8522 67.9009 96.3198 67.9009ZM107.33 68.6864C106.613 68.6864 106.036 68.5118 105.601 68.1627C105.166 67.8027 104.949 67.3064 104.949 66.6737C104.949 65.07 106.487 64.1046 109.565 63.7773V62.91C109.565 62.1355 109.44 61.6063 109.19 61.3227C108.939 61.0391 108.499 60.8973 107.869 60.8973C107.585 60.8973 107.298 60.9518 107.004 61.0609C106.711 61.1591 106.46 61.2682 106.254 61.3882C106.058 61.4973 105.933 61.5682 105.879 61.6009L105.748 60.93C105.802 60.8863 105.938 60.8045 106.156 60.6846C106.384 60.5646 106.667 60.45 107.004 60.3409C107.352 60.2318 107.699 60.1773 108.048 60.1773C108.983 60.1773 109.668 60.3737 110.103 60.7664C110.537 61.1591 110.756 61.8518 110.756 62.8446V66.8536C110.756 67.29 110.793 67.5846 110.87 67.7373C110.956 67.89 111.059 67.9664 111.18 67.9664C111.278 67.9664 111.397 67.95 111.539 67.9173C111.679 67.8736 111.772 67.8409 111.816 67.8191L111.865 68.3755C111.777 68.4082 111.593 68.4682 111.31 68.5555C111.027 68.6427 110.788 68.6864 110.593 68.6864C110.309 68.6864 110.092 68.5991 109.94 68.4246C109.787 68.2391 109.695 67.9173 109.663 67.4591H109.646C109.646 67.5028 109.559 67.6282 109.386 67.8355C109.211 68.0428 108.95 68.2391 108.603 68.4246C108.265 68.5991 107.841 68.6864 107.33 68.6864ZM107.689 67.9664C108.081 67.9664 108.417 67.8791 108.7 67.7046C108.983 67.53 109.195 67.3391 109.337 67.1318C109.488 66.9245 109.565 66.8046 109.565 66.7718V64.3827C108.575 64.4919 107.76 64.7046 107.118 65.0209C106.487 65.3373 106.172 65.8391 106.172 66.5264C106.172 66.9955 106.308 67.3555 106.579 67.6064C106.851 67.8464 107.221 67.9664 107.689 67.9664ZM119.236 68.6864C118.649 68.6864 118.214 68.5064 117.931 68.1464C117.649 67.7754 117.507 67.17 117.507 66.33V61.1427H116.659V60.4555L117.507 60.3573L117.948 57.7555H118.698V60.3409H120.786V61.1427H118.698V66.0355C118.698 66.7445 118.763 67.2354 118.894 67.5082C119.035 67.77 119.274 67.9009 119.611 67.9009C119.883 67.9009 120.128 67.8736 120.345 67.8191C120.562 67.7646 120.671 67.7319 120.671 67.7209L120.753 68.3755C120.732 68.3973 120.66 68.4355 120.541 68.49C120.432 68.5337 120.264 68.5773 120.035 68.6209C119.818 68.6646 119.551 68.6864 119.236 68.6864ZM126.34 56.2827L127.531 56.2173V61.0773H127.547C127.547 61.0773 127.613 61.0064 127.743 60.8646C127.885 60.7119 128.156 60.5591 128.559 60.4064C128.961 60.2537 129.402 60.1773 129.88 60.1773C130.674 60.1773 131.283 60.401 131.707 60.8482C132.142 61.2846 132.359 61.9391 132.359 62.8118V68.5227H131.185V62.9591C131.185 61.6827 130.619 61.0446 129.488 61.0446C129.097 61.0446 128.754 61.1046 128.461 61.2246C128.167 61.3445 127.939 61.4754 127.776 61.6173C127.613 61.7591 127.531 61.841 127.531 61.8627V68.5227H126.34V56.2827ZM138.527 72.7773C138.331 72.7773 138.163 72.7609 138.021 72.7282C137.879 72.6955 137.771 72.6627 137.695 72.63C137.618 72.5973 137.569 72.5755 137.548 72.5646L137.678 71.8118C137.711 71.8336 137.793 71.8609 137.923 71.8936C138.054 71.9373 138.195 71.9591 138.347 71.9591C138.848 71.9591 139.266 71.6863 139.603 71.1409C139.941 70.6063 140.316 69.7664 140.729 68.6209L137.532 60.3409H138.934L141.348 67.1809L143.534 60.3409H144.398L141.577 68.6536C141.109 69.9955 140.647 71.0154 140.19 71.7137C139.745 72.4227 139.19 72.7773 138.527 72.7773Z" fill="#776B5D"/>
<path d="M8.08735 76.0458C8.08735 76.3976 8.2056 76.684 8.44211 76.9049C8.67861 77.1176 9.03337 77.3426 9.50638 77.5799C9.84075 77.7517 10.1058 77.9072 10.3015 78.0462C10.5054 78.1853 10.6767 78.3572 10.8153 78.5617C10.954 78.7663 11.0233 79.0117 11.0233 79.2981C11.0233 79.6008 10.9376 79.879 10.7664 80.1326C10.6033 80.3781 10.3668 80.5744 10.0569 80.7217C9.74696 80.869 9.38405 80.9426 8.96813 80.9426C8.3891 80.9426 7.89978 80.7994 7.50017 80.5131C7.45939 80.4967 7.43085 80.4722 7.41454 80.4394C7.40638 80.4067 7.39823 80.3535 7.39007 80.2799L7.26774 79.0649C7.25958 79.0322 7.2759 79.0117 7.31667 79.0035C7.3656 78.9953 7.39823 79.0076 7.41454 79.0403C7.52871 79.5149 7.75298 79.9199 8.08735 80.2553C8.42988 80.5826 8.8091 80.7463 9.22502 80.7463C9.51046 80.7463 9.75512 80.6644 9.959 80.5008C10.171 80.329 10.2771 80.0672 10.2771 79.7153C10.2771 79.339 10.1547 79.0322 9.91007 78.7949C9.66541 78.5576 9.31065 78.3163 8.8458 78.0708C8.51959 77.8908 8.25861 77.7353 8.06289 77.6044C7.87531 77.4653 7.71628 77.2976 7.5858 77.1013C7.45531 76.9049 7.39007 76.6676 7.39007 76.3894C7.39007 75.9231 7.56949 75.559 7.92832 75.2972C8.28716 75.0353 8.72347 74.9044 9.23725 74.9044C9.65318 74.9044 10.0609 74.9985 10.4606 75.1867C10.534 75.2276 10.5788 75.2603 10.5951 75.2849C10.6196 75.3094 10.6359 75.3463 10.6441 75.3953L10.7174 76.4631C10.7174 76.4958 10.693 76.5162 10.6441 76.5244C10.6033 76.5326 10.5788 76.5203 10.5707 76.4876C10.5299 76.2831 10.4361 76.0744 10.2893 75.8617C10.1507 75.6408 9.97124 75.4567 9.75104 75.3094C9.53085 75.1622 9.28619 75.0885 9.01706 75.0885C8.72347 75.0885 8.49512 75.1785 8.33201 75.3585C8.1689 75.5385 8.08735 75.7676 8.08735 76.0458ZM13.5261 79.7522C13.5261 80.014 13.5547 80.2063 13.6118 80.329C13.6689 80.4435 13.779 80.5253 13.9421 80.5744C14.1133 80.6235 14.3784 80.6481 14.7372 80.6481C14.7617 80.6481 14.7739 80.6726 14.7739 80.7217C14.7739 80.7708 14.7617 80.7953 14.7372 80.7953C14.4436 80.7953 14.2194 80.7913 14.0644 80.7831L13.1592 80.7708L12.4374 80.7831C12.2988 80.7913 12.1112 80.7953 11.8747 80.7953C11.8584 80.7953 11.8502 80.7708 11.8502 80.7217C11.8502 80.6726 11.8584 80.6481 11.8747 80.6481C12.1438 80.6481 12.3395 80.6276 12.4619 80.5867C12.5842 80.5458 12.6658 80.4681 12.7065 80.3535C12.7555 80.2308 12.7799 80.0467 12.7799 79.8013V76.0458C12.7799 75.8003 12.7555 75.6203 12.7065 75.5058C12.6658 75.3913 12.5801 75.3135 12.4496 75.2726C12.3273 75.2235 12.1357 75.199 11.8747 75.199C11.8584 75.199 11.8502 75.1744 11.8502 75.1253C11.8502 75.0763 11.8584 75.0517 11.8747 75.0517L12.4252 75.064C12.7351 75.0803 12.9757 75.0885 13.1469 75.0885C13.2856 75.0885 13.4161 75.0844 13.5384 75.0762C13.6689 75.0681 13.779 75.0599 13.8687 75.0517C14.1296 75.0272 14.3661 75.0149 14.5782 75.0149C15.9238 75.0149 16.5966 75.514 16.5966 76.5122C16.5966 76.9049 16.4947 77.2362 16.2908 77.5062C16.0951 77.7681 15.8423 77.9644 15.5324 78.0953C15.2306 78.2263 14.9166 78.2917 14.5904 78.2917C14.3702 78.2917 14.1908 78.2753 14.0522 78.2426C14.0277 78.2426 14.0155 78.2222 14.0155 78.1813C14.0155 78.1158 14.0399 78.0831 14.0889 78.0831C14.2112 78.1076 14.3376 78.1199 14.4681 78.1199C14.8269 78.1199 15.1287 78.0053 15.3733 77.7762C15.6261 77.539 15.7526 77.1994 15.7526 76.7576C15.7526 76.2422 15.618 75.8535 15.3489 75.5917C15.0879 75.3217 14.7331 75.1867 14.2846 75.1867C14.0726 75.1867 13.9176 75.2031 13.8197 75.2358C13.7219 75.2685 13.6485 75.3463 13.5995 75.469C13.5506 75.5917 13.5261 75.7922 13.5261 76.0703V79.7522ZM18.9074 77.7517H21.1339L21.2195 77.9726H18.7117L18.9074 77.7517ZM23.397 80.6481C23.4296 80.6481 23.4459 80.6726 23.4459 80.7217C23.4459 80.7708 23.4296 80.7953 23.397 80.7953C23.2502 80.7953 23.0137 80.7872 22.6874 80.7708C22.3612 80.7544 22.1247 80.7463 21.9779 80.7463C21.8474 80.7463 21.6762 80.7544 21.4641 80.7708C21.2521 80.7872 21.089 80.7953 20.9748 80.7953C20.9422 80.7953 20.9259 80.7708 20.9259 80.7217C20.9259 80.6726 20.9422 80.6481 20.9748 80.6481C21.195 80.6481 21.3541 80.6235 21.4519 80.5744C21.5579 80.5172 21.6109 80.4231 21.6109 80.2922C21.6109 80.1776 21.5579 80.0017 21.4519 79.7644L19.5925 75.739L19.9106 75.469L18.3814 79.2858C18.2509 79.5967 18.1857 79.8544 18.1857 80.059C18.1857 80.2717 18.2591 80.4231 18.4059 80.5131C18.5527 80.6031 18.777 80.6481 19.0787 80.6481C19.1195 80.6481 19.1399 80.6726 19.1399 80.7217C19.1399 80.7708 19.1195 80.7953 19.0787 80.7953C18.9564 80.7953 18.7892 80.7872 18.5772 80.7708C18.3488 80.7544 18.1368 80.7463 17.941 80.7463C17.7372 80.7463 17.4966 80.7544 17.2193 80.7708C16.9746 80.7872 16.7789 80.7953 16.6321 80.7953C16.5913 80.7953 16.5709 80.7708 16.5709 80.7217C16.5709 80.6726 16.5913 80.6481 16.6321 80.6481C16.8849 80.6481 17.0847 80.6153 17.2315 80.5499C17.3783 80.4763 17.5129 80.3372 17.6352 80.1326C17.7657 79.9281 17.9207 79.609 18.1001 79.1753L19.8616 74.8676C19.8779 74.8349 19.9024 74.8185 19.935 74.8185C19.9676 74.8185 19.988 74.8349 19.9962 74.8676L21.9657 79.114C22.1777 79.5722 22.3449 79.9035 22.4673 80.1081C22.5977 80.3126 22.7282 80.4558 22.8587 80.5376C22.9974 80.6113 23.1768 80.6481 23.397 80.6481ZM27.0898 74.9044C27.3997 74.9044 27.73 74.9372 28.0807 75.0026C28.4395 75.0599 28.729 75.1458 28.9492 75.2603C29.0063 75.2849 29.043 75.3094 29.0593 75.334C29.0756 75.3585 29.0879 75.4035 29.096 75.469L29.2183 76.7331C29.2183 76.7576 29.1939 76.774 29.1449 76.7822C29.1042 76.7903 29.0797 76.7781 29.0716 76.7453C28.9248 76.1808 28.6556 75.7635 28.2642 75.4935C27.8809 75.2235 27.4038 75.0885 26.8329 75.0885C26.4088 75.0885 26.0255 75.2031 25.683 75.4322C25.3405 75.6612 25.0714 75.9763 24.8756 76.3772C24.6881 76.7699 24.5943 77.2158 24.5943 77.7149C24.5943 78.2222 24.6921 78.7131 24.8879 79.1876C25.0836 79.654 25.3731 80.0344 25.7564 80.329C26.1479 80.6235 26.6168 80.7708 27.1632 80.7708C27.6607 80.7708 28.0807 80.6317 28.4232 80.3535C28.7739 80.0753 29.0267 79.6499 29.1816 79.0772C29.1816 79.0526 29.202 79.0403 29.2428 79.0403C29.2591 79.0403 29.2754 79.0485 29.2917 79.0649C29.3162 79.0731 29.3284 79.0813 29.3284 79.0894L29.1694 80.3903C29.1613 80.4558 29.149 80.5008 29.1327 80.5253C29.1164 80.5499 29.0716 80.5785 28.9982 80.6113C28.3702 80.8322 27.7178 80.9426 27.0409 80.9426C26.2661 80.9426 25.63 80.7872 25.1325 80.4763C24.635 80.1653 24.2762 79.7767 24.056 79.3103C23.8358 78.844 23.7257 78.3735 23.7257 77.899C23.7257 77.3426 23.8725 76.8353 24.1661 76.3772C24.4597 75.919 24.8634 75.559 25.3772 75.2972C25.891 75.0353 26.4618 74.9044 27.0898 74.9044ZM30.2959 80.7953C30.2796 80.7953 30.2714 80.7708 30.2714 80.7217C30.2714 80.6726 30.2796 80.6481 30.2959 80.6481C30.565 80.6481 30.7607 80.6276 30.8831 80.5867C31.0054 80.5458 31.0869 80.4681 31.1277 80.3535C31.1766 80.2308 31.2011 80.0467 31.2011 79.8013V76.0458C31.2011 75.8003 31.1766 75.6203 31.1277 75.5058C31.0869 75.3913 31.0054 75.3135 30.8831 75.2726C30.7607 75.2235 30.565 75.199 30.2959 75.199C30.2796 75.199 30.2714 75.1744 30.2714 75.1253C30.2714 75.0763 30.2796 75.0517 30.2959 75.0517H34.553C34.6345 75.0517 34.6753 75.0844 34.6753 75.1499L34.6875 75.9108C34.6957 76.0663 34.6998 76.2626 34.6998 76.4999C34.6998 76.5244 34.6753 76.5367 34.6264 76.5367C34.5774 76.5367 34.553 76.5244 34.553 76.4999C34.5203 76.1235 34.3817 75.8167 34.137 75.5794C33.9005 75.334 33.6069 75.2113 33.2563 75.2113H32.9137C32.6283 75.2113 32.4203 75.2358 32.2899 75.2849C32.1594 75.3258 32.0697 75.4035 32.0207 75.5181C31.9718 75.6326 31.9473 75.8126 31.9473 76.0581V79.7522C31.9473 79.9894 31.9718 80.1694 32.0207 80.2922C32.0697 80.4067 32.1594 80.4885 32.2899 80.5376C32.4285 80.5785 32.6365 80.599 32.9137 80.599H33.5009C33.8353 80.599 34.1289 80.4681 34.3817 80.2063C34.6427 79.9363 34.818 79.5885 34.9077 79.1631C34.9077 79.1385 34.9281 79.1262 34.9689 79.1262C35.0178 79.1262 35.0423 79.1385 35.0423 79.1631C34.9852 79.7522 34.9566 80.2349 34.9566 80.6113C34.9566 80.6767 34.9444 80.7258 34.9199 80.7585C34.8955 80.7831 34.8466 80.7953 34.7732 80.7953H30.2959ZM34.0636 78.1567C34.031 78.1567 33.8516 78.1322 33.5254 78.0831C33.2073 78.0258 32.5794 77.9972 31.6415 77.9972V77.7394C32.5712 77.7394 33.1951 77.719 33.5132 77.6781C33.8394 77.6372 34.0229 77.6167 34.0636 77.6167C34.1044 77.6167 34.1248 77.7026 34.1248 77.8744C34.1248 78.0626 34.1044 78.1567 34.0636 78.1567ZM38.8375 80.7953C38.8212 80.7953 38.813 80.7708 38.813 80.7217C38.813 80.6726 38.8212 80.6481 38.8375 80.6481C39.1066 80.6481 39.3023 80.6276 39.4247 80.5867C39.547 80.5458 39.6285 80.4681 39.6693 80.3535C39.7182 80.2308 39.7427 80.0467 39.7427 79.8013V76.0458C39.7427 75.8003 39.7182 75.6203 39.6693 75.5058C39.6285 75.3913 39.547 75.3135 39.4247 75.2726C39.3023 75.2235 39.1066 75.199 38.8375 75.199C38.8212 75.199 38.813 75.1744 38.813 75.1253C38.813 75.0763 38.8212 75.0517 38.8375 75.0517H43.0946C43.1761 75.0517 43.2169 75.0844 43.2169 75.1499L43.2291 75.9108C43.2373 76.0663 43.2414 76.2626 43.2414 76.4999C43.2414 76.5244 43.2169 76.5367 43.168 76.5367C43.119 76.5367 43.0946 76.5244 43.0946 76.4999C43.0538 76.1072 42.9192 75.7963 42.6909 75.5672C42.4625 75.3299 42.1648 75.2113 41.7979 75.2113H41.4553C41.1699 75.2113 40.9619 75.2358 40.8315 75.2849C40.701 75.3258 40.6113 75.4035 40.5623 75.5181C40.5134 75.6326 40.4889 75.8126 40.4889 76.0581V79.7522C40.4889 80.014 40.5175 80.2063 40.5746 80.329C40.6316 80.4435 40.7417 80.5253 40.9049 80.5744C41.0761 80.6235 41.3412 80.6481 41.7 80.6481C41.7245 80.6481 41.7367 80.6726 41.7367 80.7217C41.7367 80.7708 41.7245 80.7953 41.7 80.7953C41.4064 80.7953 41.1821 80.7913 41.0272 80.7831L40.1097 80.7708L39.4491 80.7831C39.3105 80.7913 39.1066 80.7953 38.8375 80.7953ZM42.593 78.304C42.5604 78.304 42.381 78.2794 42.0548 78.2303C41.7367 78.1731 41.1087 78.1444 40.1709 78.1444V77.8744C41.1006 77.8744 41.7245 77.8581 42.0425 77.8253C42.3687 77.7844 42.5522 77.764 42.593 77.764C42.6338 77.764 42.6542 77.8499 42.6542 78.0217C42.6542 78.2099 42.6338 78.304 42.593 78.304ZM46.9939 80.9426C46.4231 80.9426 45.9133 80.8076 45.4648 80.5376C45.0244 80.2676 44.6819 79.9035 44.4372 79.4453C44.1926 78.9872 44.0702 78.4922 44.0702 77.9603C44.0702 77.3222 44.2333 76.774 44.5596 76.3158C44.8939 75.8494 45.3139 75.4976 45.8196 75.2603C46.3333 75.0231 46.8553 74.9044 47.3854 74.9044C47.9563 74.9044 48.4578 75.0476 48.89 75.334C49.3304 75.6122 49.6648 75.9762 49.8932 76.4262C50.1297 76.8762 50.2479 77.3467 50.2479 77.8376C50.2479 78.3858 50.1011 78.9013 49.8075 79.384C49.5139 79.8585 49.1184 80.239 48.6209 80.5253C48.1234 80.8035 47.5811 80.9426 46.9939 80.9426ZM47.312 80.6849C47.9481 80.6849 48.4537 80.4599 48.8289 80.0099C49.2122 79.5599 49.4038 78.9381 49.4038 78.1444C49.4038 77.5962 49.306 77.0972 49.1102 76.6472C48.9227 76.1972 48.6454 75.8372 48.2784 75.5672C47.9114 75.2972 47.4751 75.1622 46.9695 75.1622C46.317 75.1622 45.8114 75.3831 45.4526 75.8249C45.0937 76.2585 44.9143 76.8681 44.9143 77.6535C44.9143 78.2181 45.0081 78.7294 45.1957 79.1876C45.3914 79.6458 45.6687 80.0099 46.0275 80.2799C46.3945 80.5499 46.8227 80.6849 47.312 80.6849ZM53.6995 80.6481C53.7158 80.6481 53.7239 80.6726 53.7239 80.7217C53.7239 80.7708 53.7158 80.7953 53.6995 80.7953C53.4711 80.7953 53.2958 80.7913 53.1734 80.7831L52.4028 80.7708L51.681 80.7831C51.5424 80.7913 51.3548 80.7953 51.1183 80.7953C51.102 80.7953 51.0938 80.7708 51.0938 80.7217C51.0938 80.6726 51.102 80.6481 51.1183 80.6481C51.3874 80.6481 51.5831 80.6276 51.7055 80.5867C51.836 80.5458 51.9257 80.4681 51.9746 80.3535C52.0235 80.2308 52.048 80.0467 52.048 79.8013V76.0458C52.048 75.8003 52.0235 75.6203 51.9746 75.5058C51.9338 75.3913 51.8482 75.3135 51.7177 75.2726C51.5954 75.2235 51.3997 75.199 51.1305 75.199C51.1142 75.199 51.1061 75.1744 51.1061 75.1253C51.1061 75.0763 51.1142 75.0517 51.1305 75.0517L51.6932 75.064C51.9868 75.0803 52.2233 75.0885 52.4028 75.0885C52.5495 75.0885 52.6841 75.0844 52.8064 75.0762C52.9369 75.0681 53.047 75.0599 53.1367 75.0517C53.3977 75.0272 53.6383 75.0149 53.8585 75.0149C54.3886 75.0149 54.7923 75.1172 55.0696 75.3217C55.3468 75.5263 55.4855 75.8208 55.4855 76.2053C55.4855 76.5408 55.3876 76.8517 55.1919 77.1381C54.9962 77.4244 54.727 77.6535 54.3845 77.8253C54.042 77.989 53.6668 78.0708 53.2591 78.0708C52.9981 78.0708 52.7738 78.0544 52.5863 78.0217L52.574 77.7762C52.7779 77.8335 53.0348 77.8622 53.3447 77.8622C53.8503 77.8622 54.201 77.7517 54.3967 77.5308C54.6006 77.3017 54.7026 76.9703 54.7026 76.5367C54.7026 75.6367 54.3152 75.1867 53.5404 75.1867C53.2305 75.1867 53.0266 75.2522 52.9288 75.3831C52.8391 75.514 52.7942 75.7431 52.7942 76.0703V79.8013C52.7942 80.0549 52.8146 80.239 52.8554 80.3535C52.8962 80.4681 52.9777 80.5458 53.1 80.5867C53.2224 80.6276 53.4222 80.6481 53.6995 80.6481ZM57.3327 80.6481C57.349 80.6481 57.3571 80.6726 57.3571 80.7217C57.3571 80.7708 57.349 80.7953 57.3327 80.7953H55.9014C55.7546 80.7953 55.4896 80.5417 55.1063 80.0344C54.7229 79.5272 54.2663 78.8317 53.7362 77.9481L54.3845 77.6903C54.8575 78.4676 55.253 79.0649 55.5711 79.4822C55.8892 79.8994 56.1828 80.1981 56.4519 80.3781C56.7292 80.5581 57.0228 80.6481 57.3327 80.6481ZM61.4745 75.3217L61.7191 75.3585L61.5845 79.4576C61.5764 79.8913 61.6335 80.1981 61.7558 80.3781C61.8781 80.5581 62.0861 80.6481 62.3797 80.6481C62.4042 80.6481 62.4164 80.6726 62.4164 80.7217C62.4164 80.7708 62.4042 80.7953 62.3797 80.7953C62.2084 80.7953 62.0779 80.7913 61.9882 80.7831L61.45 80.7708L60.9362 80.7831C60.8302 80.7913 60.6834 80.7953 60.4958 80.7953C60.4795 80.7953 60.4713 80.7708 60.4713 80.7217C60.4713 80.6726 60.4795 80.6481 60.4958 80.6481C60.7976 80.6481 61.0096 80.5581 61.1319 80.3781C61.2543 80.1981 61.3236 79.8913 61.3399 79.4576L61.4745 75.3217ZM68.1414 80.6481C68.1577 80.6481 68.1659 80.6726 68.1659 80.7217C68.1659 80.7708 68.1577 80.7953 68.1414 80.7953C67.9131 80.7953 67.7337 80.7913 67.6032 80.7831L66.8814 80.7708L66.0496 80.7831C65.911 80.7913 65.7193 80.7953 65.4746 80.7953C65.4583 80.7953 65.4502 80.7708 65.4502 80.7217C65.4502 80.6726 65.4583 80.6481 65.4746 80.6481C65.7764 80.6481 66.0007 80.6276 66.1475 80.5867C66.2943 80.5458 66.3921 80.4681 66.4411 80.3535C66.49 80.2308 66.5104 80.0467 66.5022 79.8013L66.331 75.2972L66.5389 75.199L64.2391 80.7094C64.2228 80.7422 64.1943 80.7585 64.1535 80.7585C64.1045 80.7585 64.0719 80.7422 64.0556 80.7094L61.7191 76.0703C61.4337 75.4894 61.0585 75.199 60.5937 75.199C60.5692 75.199 60.557 75.1744 60.557 75.1253C60.557 75.0763 60.5692 75.0517 60.5937 75.0517L61.2665 75.064L61.8537 75.0517C61.9597 75.0517 62.0453 75.0885 62.1106 75.1622C62.1758 75.2358 62.2778 75.4117 62.4164 75.6899L64.4838 79.8135L64.1412 80.3658L66.2331 75.3585C66.2657 75.2685 66.3146 75.1949 66.3799 75.1376C66.4533 75.0803 66.5267 75.0517 66.6001 75.0517L67.2484 75.064L68.068 75.0517C68.0844 75.0517 68.0925 75.0763 68.0925 75.1253C68.0925 75.1744 68.0844 75.199 68.068 75.199C67.7011 75.199 67.4442 75.2563 67.2974 75.3708C67.1506 75.4772 67.0853 75.694 67.1016 76.0213L67.2484 79.8013C67.2647 80.0549 67.2933 80.239 67.3341 80.3535C67.3748 80.4681 67.4523 80.5458 67.5665 80.5867C67.6888 80.6276 67.8805 80.6481 68.1414 80.6481ZM71.8662 80.9426C71.2953 80.9426 70.7856 80.8076 70.3371 80.5376C69.8967 80.2676 69.5542 79.9035 69.3095 79.4453C69.0648 78.9872 68.9425 78.4922 68.9425 77.9603C68.9425 77.3222 69.1056 76.774 69.4318 76.3158C69.7662 75.8494 70.1862 75.4976 70.6918 75.2603C71.2056 75.0231 71.7276 74.9044 72.2576 74.9044C72.8285 74.9044 73.3301 75.0476 73.7623 75.334C74.2027 75.6122 74.5371 75.9762 74.7654 76.4262C75.0019 76.8762 75.1202 77.3467 75.1202 77.8376C75.1202 78.3858 74.9734 78.9013 74.6798 79.384C74.3862 79.8585 73.9907 80.239 73.4932 80.5253C72.9957 80.8035 72.4534 80.9426 71.8662 80.9426ZM72.1842 80.6849C72.8204 80.6849 73.326 80.4599 73.7011 80.0099C74.0844 79.5599 74.2761 78.9381 74.2761 78.1444C74.2761 77.5962 74.1782 77.0972 73.9825 76.6472C73.7949 76.1972 73.5177 75.8372 73.1507 75.5672C72.7837 75.2972 72.3474 75.1622 71.8417 75.1622C71.1893 75.1622 70.6837 75.3831 70.3248 75.8249C69.966 76.2585 69.7866 76.8681 69.7866 77.6535C69.7866 78.2181 69.8804 78.7294 70.0679 79.1876C70.2637 79.6458 70.5409 80.0099 70.8998 80.2799C71.2668 80.5499 71.6949 80.6849 72.1842 80.6849ZM81.8623 75.0517C81.8786 75.0517 81.8868 75.0763 81.8868 75.1253C81.8868 75.1744 81.8786 75.199 81.8623 75.199C81.6258 75.199 81.4219 75.2685 81.2506 75.4076C81.0875 75.5385 80.9407 75.7676 80.8103 76.0949L78.9631 80.7831C78.9549 80.8158 78.9101 80.8322 78.8285 80.8322C78.747 80.8322 78.7021 80.8158 78.6939 80.7831L76.4675 76.0703C76.3044 75.7267 76.1617 75.4976 76.0394 75.3831C75.9171 75.2603 75.7499 75.199 75.5378 75.199C75.5134 75.199 75.5011 75.1744 75.5011 75.1253C75.5011 75.0763 75.5134 75.0517 75.5378 75.0517L76.0027 75.064C76.231 75.0803 76.4105 75.0885 76.5409 75.0885C76.7448 75.0885 76.9936 75.0803 77.2872 75.064L77.7765 75.0517C77.7928 75.0517 77.8009 75.0763 77.8009 75.1253C77.8009 75.1744 77.7928 75.199 77.7765 75.199C77.3524 75.199 77.1404 75.3258 77.1404 75.5794C77.1404 75.6694 77.173 75.7922 77.2382 75.9476L79.171 79.9608L78.7918 80.6481L80.5534 76.0213C80.6105 75.8494 80.639 75.7267 80.639 75.6531C80.639 75.3503 80.3658 75.199 79.8194 75.199C79.7949 75.199 79.7827 75.1744 79.7827 75.1253C79.7827 75.0763 79.7949 75.0517 79.8194 75.0517L80.2598 75.064C80.5044 75.0803 80.7246 75.0885 80.9203 75.0885C81.0508 75.0885 81.214 75.0803 81.4097 75.064L81.8623 75.0517ZM82.2385 80.7953C82.2221 80.7953 82.214 80.7708 82.214 80.7217C82.214 80.6726 82.2221 80.6481 82.2385 80.6481C82.5076 80.6481 82.7033 80.6276 82.8256 80.5867C82.948 80.5458 83.0295 80.4681 83.0703 80.3535C83.1192 80.2308 83.1437 80.0467 83.1437 79.8013V76.0458C83.1437 75.8003 83.1192 75.6203 83.0703 75.5058C83.0295 75.3913 82.948 75.3135 82.8256 75.2726C82.7033 75.2235 82.5076 75.199 82.2385 75.199C82.2221 75.199 82.214 75.1744 82.214 75.1253C82.214 75.0763 82.2221 75.0517 82.2385 75.0517H86.4955C86.5771 75.0517 86.6179 75.0844 86.6179 75.1499L86.6301 75.9108C86.6383 76.0663 86.6423 76.2626 86.6423 76.4999C86.6423 76.5244 86.6179 76.5367 86.5689 76.5367C86.52 76.5367 86.4955 76.5244 86.4955 76.4999C86.4629 76.1235 86.3243 75.8167 86.0796 75.5794C85.8431 75.334 85.5495 75.2113 85.1988 75.2113H84.8563C84.5709 75.2113 84.3629 75.2358 84.2324 75.2849C84.102 75.3258 84.0122 75.4035 83.9633 75.5181C83.9144 75.6326 83.8899 75.8126 83.8899 76.0581V79.7522C83.8899 79.9894 83.9144 80.1694 83.9633 80.2922C84.0122 80.4067 84.102 80.4885 84.2324 80.5376C84.3711 80.5785 84.579 80.599 84.8563 80.599H85.4435C85.7779 80.599 86.0715 80.4681 86.3243 80.2063C86.5853 79.9363 86.7606 79.5885 86.8503 79.1631C86.8503 79.1385 86.8707 79.1262 86.9115 79.1262C86.9604 79.1262 86.9849 79.1385 86.9849 79.1631C86.9278 79.7522 86.8992 80.2349 86.8992 80.6113C86.8992 80.6767 86.887 80.7258 86.8625 80.7585C86.8381 80.7831 86.7891 80.7953 86.7157 80.7953H82.2385ZM86.0062 78.1567C85.9736 78.1567 85.7942 78.1322 85.468 78.0831C85.1499 78.0258 84.5219 77.9972 83.5841 77.9972V77.7394C84.5138 77.7394 85.1377 77.719 85.4557 77.6781C85.782 77.6372 85.9654 77.6167 86.0062 77.6167C86.047 77.6167 86.0674 77.7026 86.0674 77.8744C86.0674 78.0626 86.047 78.1567 86.0062 78.1567ZM88.8794 75.3217L89.124 75.3585L88.9895 79.4576C88.9813 79.8913 89.0384 80.1981 89.1607 80.3781C89.283 80.5581 89.491 80.6481 89.7846 80.6481C89.8091 80.6481 89.8213 80.6726 89.8213 80.7217C89.8213 80.7708 89.8091 80.7953 89.7846 80.7953C89.6133 80.7953 89.4828 80.7913 89.3931 80.7831L88.8549 80.7708L88.3411 80.7831C88.2351 80.7913 88.0883 80.7953 87.9007 80.7953C87.8844 80.7953 87.8763 80.7708 87.8763 80.7217C87.8763 80.6726 87.8844 80.6481 87.9007 80.6481C88.2025 80.6481 88.4145 80.5581 88.5368 80.3781C88.6592 80.1981 88.7285 79.8913 88.7448 79.4576L88.8794 75.3217ZM95.5463 80.6481C95.5627 80.6481 95.5708 80.6726 95.5708 80.7217C95.5708 80.7708 95.5627 80.7953 95.5463 80.7953C95.318 80.7953 95.1386 80.7913 95.0081 80.7831L94.2863 80.7708L93.4545 80.7831C93.3159 80.7913 93.1242 80.7953 92.8795 80.7953C92.8632 80.7953 92.8551 80.7708 92.8551 80.7217C92.8551 80.6726 92.8632 80.6481 92.8795 80.6481C93.1813 80.6481 93.4056 80.6276 93.5524 80.5867C93.6992 80.5458 93.797 80.4681 93.846 80.3535C93.8949 80.2308 93.9153 80.0467 93.9071 79.8013L93.7359 75.2972L93.9438 75.199L91.644 80.7094C91.6277 80.7422 91.5992 80.7585 91.5584 80.7585C91.5095 80.7585 91.4768 80.7422 91.4605 80.7094L89.124 76.0703C88.8386 75.4894 88.4634 75.199 87.9986 75.199C87.9741 75.199 87.9619 75.1744 87.9619 75.1253C87.9619 75.0763 87.9741 75.0517 87.9986 75.0517L88.6714 75.064L89.2586 75.0517C89.3646 75.0517 89.4502 75.0885 89.5155 75.1622C89.5807 75.2358 89.6827 75.4117 89.8213 75.6899L91.8887 79.8135L91.5462 80.3658L93.638 75.3585C93.6706 75.2685 93.7195 75.1949 93.7848 75.1376C93.8582 75.0803 93.9316 75.0517 94.005 75.0517L94.6533 75.064L95.473 75.0517C95.4893 75.0517 95.4974 75.0763 95.4974 75.1253C95.4974 75.1744 95.4893 75.199 95.473 75.199C95.106 75.199 94.8491 75.2563 94.7023 75.3708C94.5555 75.4772 94.4902 75.694 94.5065 76.0213L94.6533 79.8013C94.6696 80.0549 94.6982 80.239 94.739 80.3535C94.7797 80.4681 94.8572 80.5458 94.9714 80.5867C95.0937 80.6276 95.2854 80.6481 95.5463 80.6481ZM96.3351 80.7953C96.3188 80.7953 96.3106 80.7708 96.3106 80.7217C96.3106 80.6726 96.3188 80.6481 96.3351 80.6481C96.6042 80.6481 96.7999 80.6276 96.9223 80.5867C97.0446 80.5458 97.1261 80.4681 97.1669 80.3535C97.2158 80.2308 97.2403 80.0467 97.2403 79.8013V76.0458C97.2403 75.8003 97.2158 75.6203 97.1669 75.5058C97.1261 75.3913 97.0446 75.3135 96.9223 75.2726C96.7999 75.2235 96.6042 75.199 96.3351 75.199C96.3188 75.199 96.3106 75.1744 96.3106 75.1253C96.3106 75.0763 96.3188 75.0517 96.3351 75.0517H100.592C100.674 75.0517 100.714 75.0844 100.714 75.1499L100.727 75.9108C100.735 76.0663 100.739 76.2626 100.739 76.4999C100.739 76.5244 100.714 76.5367 100.666 76.5367C100.617 76.5367 100.592 76.5244 100.592 76.4999C100.56 76.1235 100.421 75.8167 100.176 75.5794C99.9397 75.334 99.6461 75.2113 99.2955 75.2113H98.9529C98.6675 75.2113 98.4595 75.2358 98.329 75.2849C98.1986 75.3258 98.1089 75.4035 98.0599 75.5181C98.011 75.6326 97.9865 75.8126 97.9865 76.0581V79.7522C97.9865 79.9894 98.011 80.1694 98.0599 80.2922C98.1089 80.4067 98.1986 80.4885 98.329 80.5376C98.4677 80.5785 98.6757 80.599 98.9529 80.599H99.5401C99.8745 80.599 100.168 80.4681 100.421 80.2063C100.682 79.9363 100.857 79.5885 100.947 79.1631C100.947 79.1385 100.967 79.1262 101.008 79.1262C101.057 79.1262 101.081 79.1385 101.081 79.1631C101.024 79.7522 100.996 80.2349 100.996 80.6113C100.996 80.6767 100.984 80.7258 100.959 80.7585C100.935 80.7831 100.886 80.7953 100.812 80.7953H96.3351ZM100.103 78.1567C100.07 78.1567 99.8908 78.1322 99.5646 78.0831C99.2465 78.0258 98.6186 77.9972 97.6807 77.9972V77.7394C98.6104 77.7394 99.2343 77.719 99.5523 77.6781C99.8786 77.6372 100.062 77.6167 100.103 77.6167C100.144 77.6167 100.164 77.7026 100.164 77.8744C100.164 78.0626 100.144 78.1567 100.103 78.1567ZM102.78 75.3217L103.024 75.3585V79.4576C103.024 79.8913 103.086 80.1981 103.208 80.3781C103.33 80.5581 103.542 80.6481 103.844 80.6481C103.86 80.6481 103.868 80.6726 103.868 80.7217C103.868 80.7708 103.86 80.7953 103.844 80.7953C103.665 80.7953 103.526 80.7913 103.428 80.7831L102.914 80.7708L102.388 80.7831C102.282 80.7913 102.135 80.7953 101.948 80.7953C101.932 80.7953 101.924 80.7708 101.924 80.7217C101.924 80.6726 101.932 80.6481 101.948 80.6481C102.25 80.6481 102.462 80.5581 102.584 80.3781C102.714 80.1981 102.78 79.8913 102.78 79.4576V75.3217ZM107.343 80.9303C107.343 80.9467 107.322 80.959 107.281 80.9672C107.241 80.9753 107.212 80.9713 107.196 80.9549L103.183 76.0581C102.922 75.7472 102.694 75.5263 102.498 75.3953C102.311 75.2644 102.127 75.199 101.948 75.199C101.932 75.199 101.924 75.1744 101.924 75.1253C101.924 75.0763 101.932 75.0517 101.948 75.0517L102.633 75.064L103.281 75.0517C103.338 75.0517 103.383 75.0681 103.416 75.1008C103.457 75.1335 103.514 75.2031 103.587 75.3094C103.652 75.4158 103.742 75.5426 103.856 75.6899L107.22 79.8503L107.343 80.9303ZM107.343 80.9303L107.098 80.5499V76.3894C107.098 75.9558 107.037 75.649 106.914 75.469C106.8 75.289 106.592 75.199 106.291 75.199C106.266 75.199 106.254 75.1744 106.254 75.1253C106.254 75.0763 106.266 75.0517 106.291 75.0517L106.707 75.064C106.919 75.0803 107.09 75.0885 107.22 75.0885C107.351 75.0885 107.53 75.0803 107.759 75.064L108.187 75.0517C108.211 75.0517 108.223 75.0763 108.223 75.1253C108.223 75.1744 108.211 75.199 108.187 75.199C107.885 75.199 107.669 75.289 107.538 75.469C107.408 75.649 107.343 75.9558 107.343 76.3894V80.9303ZM110.393 75.2113C110.083 75.2113 109.838 75.2562 109.659 75.3462C109.479 75.4281 109.337 75.5713 109.231 75.7758C109.133 75.9803 109.055 76.2708 108.998 76.6472C108.998 76.6635 108.974 76.6717 108.925 76.6717C108.884 76.6717 108.864 76.6635 108.864 76.6472C108.888 76.459 108.917 76.1563 108.949 75.739C108.982 75.3217 108.998 75.0026 108.998 74.7817C108.998 74.7408 109.023 74.7203 109.072 74.7203C109.121 74.7203 109.145 74.7408 109.145 74.7817C109.145 74.8881 109.206 74.9576 109.328 74.9903C109.451 75.0149 109.602 75.0272 109.781 75.0272C110.499 75.0435 111.114 75.0517 111.628 75.0517L112.693 75.0394C112.839 75.0313 113.031 75.0272 113.267 75.0272C113.561 75.0272 113.777 75.0108 113.916 74.9781C114.054 74.9372 114.144 74.8553 114.185 74.7326C114.201 74.7081 114.23 74.6958 114.271 74.6958C114.311 74.6958 114.332 74.7081 114.332 74.7326C114.283 75.6163 114.258 76.2544 114.258 76.6472C114.258 76.6635 114.234 76.6717 114.185 76.6717C114.144 76.6717 114.124 76.6635 114.124 76.6472C114.116 76.279 114.071 75.9926 113.989 75.7881C113.916 75.5835 113.789 75.4362 113.61 75.3462C113.431 75.2562 113.182 75.2113 112.864 75.2113C112.513 75.2113 112.277 75.2685 112.154 75.3831C112.04 75.4894 111.983 75.7103 111.983 76.0458V79.8013C111.983 80.0549 112.007 80.239 112.056 80.3535C112.105 80.4681 112.199 80.5458 112.338 80.5867C112.485 80.6276 112.717 80.6481 113.035 80.6481C113.06 80.6481 113.072 80.6726 113.072 80.7217C113.072 80.7708 113.06 80.7953 113.035 80.7953C112.782 80.7953 112.587 80.7913 112.448 80.7831L111.592 80.7708L110.772 80.7831C110.625 80.7913 110.421 80.7953 110.16 80.7953C110.144 80.7953 110.136 80.7708 110.136 80.7217C110.136 80.6726 110.144 80.6481 110.16 80.6481C110.47 80.6481 110.699 80.6276 110.845 80.5867C110.992 80.5458 111.09 80.4681 111.139 80.3535C111.196 80.2308 111.225 80.0467 111.225 79.8013V76.0213C111.225 75.784 111.204 75.6122 111.163 75.5058C111.131 75.3913 111.057 75.3135 110.943 75.2726C110.829 75.2317 110.646 75.2113 110.393 75.2113ZM120.846 80.8444C120.617 80.8444 120.361 80.8322 120.075 80.8076C119.977 80.7994 119.855 80.7913 119.708 80.7831C119.561 80.7749 119.394 80.7708 119.207 80.7708L118.485 80.7831C118.346 80.7913 118.159 80.7953 117.922 80.7953C117.906 80.7953 117.898 80.7708 117.898 80.7217C117.898 80.6726 117.906 80.6481 117.922 80.6481C118.199 80.6481 118.399 80.6276 118.522 80.5867C118.652 80.5458 118.738 80.4681 118.778 80.3535C118.827 80.2308 118.852 80.0467 118.852 79.8013V76.0458C118.852 75.8003 118.827 75.6203 118.778 75.5058C118.738 75.3913 118.652 75.3135 118.522 75.2726C118.399 75.2235 118.204 75.199 117.934 75.199C117.918 75.199 117.91 75.1744 117.91 75.1253C117.91 75.0763 117.918 75.0517 117.934 75.0517L118.485 75.064C118.795 75.0803 119.035 75.0885 119.207 75.0885C119.459 75.0885 119.712 75.0763 119.965 75.0517C120.291 75.0353 120.536 75.0272 120.699 75.0272C121.384 75.0272 121.975 75.1499 122.473 75.3953C122.97 75.6408 123.35 75.9803 123.61 76.414C123.871 76.8476 124.002 77.3385 124.002 77.8867C124.002 78.4513 123.867 78.9585 123.598 79.4085C123.329 79.8585 122.954 80.2103 122.473 80.464C122 80.7176 121.457 80.8444 120.846 80.8444ZM120.699 80.6726C121.466 80.6726 122.061 80.4435 122.485 79.9853C122.909 79.5272 123.121 78.8726 123.121 78.0217C123.121 77.2035 122.909 76.5285 122.485 75.9967C122.069 75.4649 121.441 75.199 120.601 75.199C120.226 75.199 119.961 75.2603 119.806 75.3831C119.659 75.5058 119.586 75.7349 119.586 76.0703V79.6663C119.586 80.0344 119.659 80.2963 119.806 80.4517C119.961 80.599 120.259 80.6726 120.699 80.6726ZM126.616 77.7517H128.842L128.928 77.9726H126.42L126.616 77.7517ZM131.105 80.6481C131.138 80.6481 131.154 80.6726 131.154 80.7217C131.154 80.7708 131.138 80.7953 131.105 80.7953C130.958 80.7953 130.722 80.7872 130.396 80.7708C130.07 80.7544 129.833 80.7463 129.686 80.7463C129.556 80.7463 129.384 80.7544 129.172 80.7708C128.96 80.7872 128.797 80.7953 128.683 80.7953C128.651 80.7953 128.634 80.7708 128.634 80.7217C128.634 80.6726 128.651 80.6481 128.683 80.6481C128.903 80.6481 129.062 80.6235 129.16 80.5744C129.266 80.5172 129.319 80.4231 129.319 80.2922C129.319 80.1776 129.266 80.0017 129.16 79.7644L127.301 75.739L127.619 75.469L126.09 79.2858C125.959 79.5967 125.894 79.8544 125.894 80.059C125.894 80.2717 125.967 80.4231 126.114 80.5131C126.261 80.6031 126.485 80.6481 126.787 80.6481C126.828 80.6481 126.848 80.6726 126.848 80.7217C126.848 80.7708 126.828 80.7953 126.787 80.7953C126.665 80.7953 126.497 80.7872 126.285 80.7708C126.057 80.7544 125.845 80.7463 125.649 80.7463C125.445 80.7463 125.205 80.7544 124.928 80.7708C124.683 80.7872 124.487 80.7953 124.34 80.7953C124.3 80.7953 124.279 80.7708 124.279 80.7217C124.279 80.6726 124.3 80.6481 124.34 80.6481C124.593 80.6481 124.793 80.6153 124.94 80.5499C125.087 80.4763 125.221 80.3372 125.344 80.1326C125.474 79.9281 125.629 79.609 125.808 79.1753L127.57 74.8676C127.586 74.8349 127.611 74.8185 127.643 74.8185C127.676 74.8185 127.696 74.8349 127.704 74.8676L129.674 79.114C129.886 79.5722 130.053 79.9035 130.176 80.1081C130.306 80.3126 130.437 80.4558 130.567 80.5376C130.706 80.6113 130.885 80.6481 131.105 80.6481ZM132.336 75.3217L132.58 75.3585V79.4576C132.58 79.8913 132.642 80.1981 132.764 80.3781C132.886 80.5581 133.098 80.6481 133.4 80.6481C133.416 80.6481 133.424 80.6726 133.424 80.7217C133.424 80.7708 133.416 80.7953 133.4 80.7953C133.221 80.7953 133.082 80.7913 132.984 80.7831L132.47 80.7708L131.944 80.7831C131.838 80.7913 131.691 80.7953 131.504 80.7953C131.488 80.7953 131.479 80.7708 131.479 80.7217C131.479 80.6726 131.488 80.6481 131.504 80.6481C131.806 80.6481 132.018 80.5581 132.14 80.3781C132.27 80.1981 132.336 79.8913 132.336 79.4576V75.3217ZM136.899 80.9303C136.899 80.9467 136.878 80.959 136.837 80.9672C136.797 80.9753 136.768 80.9713 136.752 80.9549L132.739 76.0581C132.478 75.7472 132.25 75.5263 132.054 75.3953C131.867 75.2644 131.683 75.199 131.504 75.199C131.488 75.199 131.479 75.1744 131.479 75.1253C131.479 75.0763 131.488 75.0517 131.504 75.0517L132.189 75.064L132.837 75.0517C132.894 75.0517 132.939 75.0681 132.972 75.1008C133.013 75.1335 133.07 75.2031 133.143 75.3094C133.208 75.4158 133.298 75.5426 133.412 75.6899L136.776 79.8503L136.899 80.9303ZM136.899 80.9303L136.654 80.5499V76.3894C136.654 75.9558 136.593 75.649 136.47 75.469C136.356 75.289 136.148 75.199 135.847 75.199C135.822 75.199 135.81 75.1744 135.81 75.1253C135.81 75.0763 135.822 75.0517 135.847 75.0517L136.262 75.064C136.475 75.0803 136.646 75.0885 136.776 75.0885C136.907 75.0885 137.086 75.0803 137.315 75.064L137.743 75.0517C137.767 75.0517 137.779 75.0763 137.779 75.1253C137.779 75.1744 137.767 75.199 137.743 75.199C137.441 75.199 137.225 75.289 137.094 75.469C136.964 75.649 136.899 75.9558 136.899 76.3894V80.9303ZM141.917 74.9044C142.227 74.9044 142.557 74.9372 142.908 75.0026C143.267 75.0599 143.556 75.1458 143.777 75.2603C143.834 75.2849 143.87 75.3094 143.887 75.334C143.903 75.3585 143.915 75.4035 143.923 75.469L144.046 76.7331C144.046 76.7576 144.021 76.774 143.972 76.7822C143.932 76.7903 143.907 76.7781 143.899 76.7453C143.752 76.1808 143.483 75.7635 143.092 75.4935C142.708 75.2235 142.231 75.0885 141.66 75.0885C141.236 75.0885 140.853 75.2031 140.51 75.4322C140.168 75.6612 139.899 75.9763 139.703 76.3772C139.515 76.7699 139.422 77.2158 139.422 77.7149C139.422 78.2222 139.52 78.7131 139.715 79.1876C139.911 79.654 140.201 80.0344 140.584 80.329C140.975 80.6235 141.444 80.7708 141.991 80.7708C142.488 80.7708 142.908 80.6317 143.251 80.3535C143.601 80.0753 143.854 79.6499 144.009 79.0772C144.009 79.0526 144.029 79.0403 144.07 79.0403C144.087 79.0403 144.103 79.0485 144.119 79.0649C144.144 79.0731 144.156 79.0813 144.156 79.0894L143.997 80.3903C143.989 80.4558 143.976 80.5008 143.96 80.5253C143.944 80.5499 143.899 80.5785 143.826 80.6113C143.198 80.8322 142.545 80.9426 141.868 80.9426C141.094 80.9426 140.457 80.7872 139.96 80.4763C139.462 80.1653 139.104 79.7767 138.883 79.3103C138.663 78.844 138.553 78.3735 138.553 77.899C138.553 77.3426 138.7 76.8353 138.993 76.3772C139.287 75.919 139.691 75.559 140.205 75.2972C140.718 75.0353 141.289 74.9044 141.917 74.9044ZM145.123 80.7953C145.107 80.7953 145.099 80.7708 145.099 80.7217C145.099 80.6726 145.107 80.6481 145.123 80.6481C145.392 80.6481 145.588 80.6276 145.71 80.5867C145.833 80.5458 145.914 80.4681 145.955 80.3535C146.004 80.2308 146.029 80.0467 146.029 79.8013V76.0458C146.029 75.8003 146.004 75.6203 145.955 75.5058C145.914 75.3913 145.833 75.3135 145.71 75.2726C145.588 75.2235 145.392 75.199 145.123 75.199C145.107 75.199 145.099 75.1744 145.099 75.1253C145.099 75.0763 145.107 75.0517 145.123 75.0517H149.38C149.462 75.0517 149.503 75.0844 149.503 75.1499L149.515 75.9108C149.523 76.0663 149.527 76.2626 149.527 76.4999C149.527 76.5244 149.503 76.5367 149.454 76.5367C149.405 76.5367 149.38 76.5244 149.38 76.4999C149.348 76.1235 149.209 75.8167 148.964 75.5794C148.728 75.334 148.434 75.2113 148.084 75.2113H147.741C147.456 75.2113 147.248 75.2358 147.117 75.2849C146.987 75.3258 146.897 75.4035 146.848 75.5181C146.799 75.6326 146.775 75.8126 146.775 76.0581V79.7522C146.775 79.9894 146.799 80.1694 146.848 80.2922C146.897 80.4067 146.987 80.4885 147.117 80.5376C147.256 80.5785 147.464 80.599 147.741 80.599H148.328C148.663 80.599 148.956 80.4681 149.209 80.2063C149.47 79.9363 149.645 79.5885 149.735 79.1631C149.735 79.1385 149.755 79.1262 149.796 79.1262C149.845 79.1262 149.87 79.1385 149.87 79.1631C149.813 79.7522 149.784 80.2349 149.784 80.6113C149.784 80.6767 149.772 80.7258 149.747 80.7585C149.723 80.7831 149.674 80.7953 149.601 80.7953H145.123ZM148.891 78.1567C148.858 78.1567 148.679 78.1322 148.353 78.0831C148.035 78.0258 147.407 77.9972 146.469 77.9972V77.7394C147.399 77.7394 148.022 77.719 148.341 77.6781C148.667 77.6372 148.85 77.6167 148.891 77.6167C148.932 77.6167 148.952 77.7026 148.952 77.8744C148.952 78.0626 148.932 78.1567 148.891 78.1567ZM156.014 74.9044C156.315 74.9044 156.581 74.9781 156.809 75.1253C157.045 75.2644 157.164 75.514 157.164 75.874C157.164 76.1276 157.102 76.3526 156.98 76.549C156.858 76.7453 156.707 76.9172 156.527 77.0644C156.356 77.2035 156.12 77.3713 155.818 77.5676C155.516 77.7722 155.276 77.9481 155.096 78.0953C154.917 78.2426 154.766 78.4185 154.644 78.6231C154.521 78.8194 154.46 79.0444 154.46 79.2981C154.46 79.6908 154.599 80.0099 154.876 80.2553C155.153 80.4926 155.504 80.6113 155.928 80.6113C156.336 80.6113 156.703 80.5049 157.029 80.2922C157.355 80.0794 157.612 79.8053 157.8 79.4699C157.987 79.1344 158.081 78.7867 158.081 78.4267C158.081 77.9194 157.836 77.6658 157.347 77.6658C157.323 77.6658 157.306 77.6412 157.298 77.5922C157.298 77.5431 157.314 77.5185 157.347 77.5185L159.451 77.5062C159.484 77.5062 159.5 77.5308 159.5 77.5799C159.5 77.629 159.484 77.6535 159.451 77.6535C159.239 77.6535 159.08 77.6781 158.974 77.7272C158.876 77.7763 158.807 77.8417 158.766 77.9235C158.734 77.9972 158.685 78.1322 158.619 78.3285C158.415 78.9994 158.065 79.6049 157.567 80.1449C157.07 80.6767 156.373 80.9426 155.475 80.9426C154.896 80.9426 154.46 80.8199 154.167 80.5744C153.881 80.329 153.738 80.0263 153.738 79.6663C153.738 79.3226 153.853 79.0281 154.081 78.7826C154.309 78.529 154.652 78.2385 155.108 77.9113C155.573 77.5758 155.924 77.2772 156.161 77.0153C156.405 76.7535 156.527 76.4385 156.527 76.0703C156.527 75.784 156.45 75.559 156.295 75.3953C156.14 75.2235 155.936 75.1376 155.683 75.1376C155.471 75.1376 155.304 75.2072 155.182 75.3462C155.068 75.4853 155.011 75.6899 155.011 75.9599C155.011 76.4017 155.21 76.9253 155.61 77.5308C156.018 78.1363 156.548 78.7172 157.2 79.2735C157.698 79.699 158.183 80.0344 158.656 80.2799C159.129 80.5172 159.488 80.6399 159.733 80.6481C159.757 80.6481 159.769 80.6726 159.769 80.7217C159.769 80.7708 159.757 80.7953 159.733 80.7953H158.473C158.293 80.7953 158.032 80.6972 157.69 80.5008C157.355 80.2963 156.976 80.0017 156.552 79.6172C156.161 79.2735 155.773 78.8849 155.39 78.4513C155.007 78.0176 154.733 77.6249 154.57 77.2731C154.423 76.954 154.35 76.6594 154.35 76.3894C154.35 76.0949 154.427 75.8372 154.582 75.6162C154.737 75.3872 154.941 75.2113 155.194 75.0885C155.455 74.9658 155.728 74.9044 156.014 74.9044ZM166.272 80.9426C165.62 80.9426 165.049 80.8076 164.559 80.5376C164.078 80.2594 163.711 79.8953 163.459 79.4453C163.206 78.9953 163.079 78.5208 163.079 78.0217C163.079 77.3835 163.222 76.8313 163.507 76.3649C163.793 75.8903 164.201 75.5303 164.731 75.2849C165.261 75.0313 165.885 74.9044 166.602 74.9044C166.945 74.9044 167.271 74.9372 167.581 75.0026C167.891 75.0681 168.152 75.1622 168.364 75.2849C168.413 75.3094 168.441 75.3422 168.45 75.3831C168.466 75.424 168.478 75.4813 168.486 75.5549L168.609 76.7085C168.609 76.7331 168.584 76.7494 168.535 76.7576C168.494 76.7576 168.47 76.7453 168.462 76.7208C168.282 76.1563 168.013 75.7431 167.654 75.4813C167.296 75.2194 166.847 75.0885 166.309 75.0885C165.591 75.0885 165.016 75.3381 164.584 75.8372C164.152 76.3281 163.936 77.0031 163.936 77.8622C163.936 78.4267 164.042 78.9299 164.254 79.3717C164.474 79.8053 164.78 80.1449 165.171 80.3903C165.571 80.6358 166.036 80.7585 166.566 80.7585C166.973 80.7585 167.271 80.7217 167.459 80.6481C167.654 80.5744 167.785 80.4353 167.85 80.2308C167.924 80.0181 167.96 79.6908 167.96 79.249C167.96 79.0363 167.936 78.889 167.887 78.8072C167.846 78.7172 167.752 78.6599 167.605 78.6353C167.467 78.6026 167.218 78.5862 166.859 78.5862C166.81 78.5862 166.786 78.5535 166.786 78.4881C166.786 78.4635 166.79 78.4431 166.798 78.4267C166.814 78.4022 166.831 78.3899 166.847 78.3899C167.271 78.4226 167.699 78.439 168.132 78.439C168.327 78.439 168.653 78.4308 169.11 78.4144C169.126 78.4144 169.139 78.4267 169.147 78.4513C169.163 78.4676 169.171 78.484 169.171 78.5003C169.171 78.5576 169.151 78.5862 169.11 78.5862C168.947 78.5781 168.833 78.5903 168.768 78.6231C168.702 78.6558 168.662 78.7253 168.645 78.8317C168.629 78.9299 168.621 79.1099 168.621 79.3717C168.621 79.7399 168.629 79.9976 168.645 80.1449C168.662 80.2922 168.67 80.3944 168.67 80.4517C168.67 80.5008 168.662 80.5335 168.645 80.5499C168.637 80.5581 168.6 80.5744 168.535 80.599C167.997 80.8281 167.243 80.9426 166.272 80.9426ZM172.458 80.6481C172.474 80.6481 172.482 80.6726 172.482 80.7217C172.482 80.7708 172.474 80.7953 172.458 80.7953C172.23 80.7953 172.054 80.7913 171.932 80.7831L171.161 80.7708L170.439 80.7831C170.301 80.7913 170.113 80.7953 169.877 80.7953C169.86 80.7953 169.852 80.7708 169.852 80.7217C169.852 80.6726 169.86 80.6481 169.877 80.6481C170.146 80.6481 170.342 80.6276 170.464 80.5867C170.594 80.5458 170.684 80.4681 170.733 80.3535C170.782 80.2308 170.806 80.0467 170.806 79.8013V76.0458C170.806 75.8003 170.782 75.6203 170.733 75.5058C170.692 75.3913 170.607 75.3135 170.476 75.2726C170.354 75.2235 170.158 75.199 169.889 75.199C169.873 75.199 169.865 75.1744 169.865 75.1253C169.865 75.0763 169.873 75.0517 169.889 75.0517L170.452 75.064C170.745 75.0803 170.982 75.0885 171.161 75.0885C171.308 75.0885 171.443 75.0844 171.565 75.0762C171.695 75.0681 171.805 75.0599 171.895 75.0517C172.156 75.0272 172.397 75.0149 172.617 75.0149C173.147 75.0149 173.551 75.1172 173.828 75.3217C174.105 75.5263 174.244 75.8208 174.244 76.2053C174.244 76.5408 174.146 76.8517 173.95 77.1381C173.755 77.4244 173.486 77.6535 173.143 77.8253C172.8 77.989 172.425 78.0708 172.018 78.0708C171.757 78.0708 171.532 78.0544 171.345 78.0217L171.332 77.7762C171.536 77.8335 171.793 77.8622 172.103 77.8622C172.609 77.8622 172.959 77.7517 173.155 77.5308C173.359 77.3017 173.461 76.9703 173.461 76.5367C173.461 75.6367 173.074 75.1867 172.299 75.1867C171.989 75.1867 171.785 75.2522 171.687 75.3831C171.598 75.514 171.553 75.7431 171.553 76.0703V79.8013C171.553 80.0549 171.573 80.239 171.614 80.3535C171.655 80.4681 171.736 80.5458 171.859 80.5867C171.981 80.6276 172.181 80.6481 172.458 80.6481ZM176.091 80.6481C176.107 80.6481 176.116 80.6726 176.116 80.7217C176.116 80.7708 176.107 80.7953 176.091 80.7953H174.66C174.513 80.7953 174.248 80.5417 173.865 80.0344C173.481 79.5272 173.025 78.8317 172.495 77.9481L173.143 77.6903C173.616 78.4676 174.012 79.0649 174.33 79.4822C174.648 79.8994 174.941 80.1981 175.21 80.3781C175.488 80.5581 175.781 80.6481 176.091 80.6481ZM179.192 80.9426C178.621 80.9426 178.112 80.8076 177.663 80.5376C177.223 80.2676 176.88 79.9035 176.635 79.4453C176.391 78.9872 176.269 78.4922 176.269 77.9603C176.269 77.3222 176.432 76.774 176.758 76.3158C177.092 75.8494 177.512 75.4976 178.018 75.2603C178.532 75.0231 179.054 74.9044 179.584 74.9044C180.155 74.9044 180.656 75.0476 181.088 75.334C181.529 75.6122 181.863 75.9762 182.091 76.4262C182.328 76.8762 182.446 77.3467 182.446 77.8376C182.446 78.3858 182.299 78.9013 182.006 79.384C181.712 79.8585 181.317 80.239 180.819 80.5253C180.322 80.8035 179.779 80.9426 179.192 80.9426ZM179.51 80.6849C180.146 80.6849 180.652 80.4599 181.027 80.0099C181.41 79.5599 181.602 78.9381 181.602 78.1444C181.602 77.5962 181.504 77.0972 181.309 76.6472C181.121 76.1972 180.844 75.8372 180.477 75.5672C180.11 75.2972 179.673 75.1622 179.168 75.1622C178.515 75.1622 178.01 75.3831 177.651 75.8249C177.292 76.2585 177.113 76.8681 177.113 77.6535C177.113 78.2181 177.206 78.7294 177.394 79.1876C177.59 79.6458 177.867 80.0099 178.226 80.2799C178.593 80.5499 179.021 80.6849 179.51 80.6849ZM191.744 75.0517C191.769 75.0517 191.781 75.0763 191.781 75.1253C191.781 75.1744 191.769 75.199 191.744 75.199C191.5 75.199 191.292 75.2685 191.12 75.4076C190.949 75.5467 190.79 75.7962 190.643 76.1562L188.821 80.7831C188.812 80.8158 188.768 80.8322 188.686 80.8322C188.604 80.8322 188.56 80.8158 188.551 80.7831L186.325 76.0703C186.154 75.7103 186.019 75.4772 185.921 75.3708C185.824 75.2563 185.681 75.199 185.493 75.199C185.477 75.199 185.469 75.1744 185.469 75.1253C185.469 75.0763 185.477 75.0517 185.493 75.0517L185.897 75.064C186.093 75.0803 186.248 75.0885 186.362 75.0885C186.5 75.0885 186.659 75.0803 186.839 75.064L187.132 75.0517C187.149 75.0517 187.157 75.0763 187.157 75.1253C187.157 75.1744 187.149 75.199 187.132 75.199C187.026 75.199 186.949 75.2072 186.9 75.2235C186.859 75.2399 186.839 75.2767 186.839 75.334C186.839 75.424 186.916 75.6285 187.071 75.9476L189.016 79.9731L188.686 80.6358L190.386 76.0949C190.452 75.9313 190.484 75.7758 190.484 75.6285C190.484 75.3422 190.313 75.199 189.971 75.199C189.954 75.199 189.946 75.1744 189.946 75.1253C189.946 75.0763 189.954 75.0517 189.971 75.0517L190.313 75.064C190.476 75.0803 190.631 75.0885 190.778 75.0885C190.925 75.0885 191.096 75.0803 191.292 75.064L191.744 75.0517ZM186.288 80.7831C186.28 80.8158 186.235 80.8322 186.154 80.8322C186.072 80.8322 186.027 80.8158 186.019 80.7831L183.793 76.0703C183.63 75.7267 183.487 75.4976 183.365 75.3831C183.242 75.2603 183.075 75.199 182.863 75.199C182.839 75.199 182.826 75.1744 182.826 75.1253C182.826 75.0763 182.839 75.0517 182.863 75.0517L183.34 75.064C183.552 75.0803 183.707 75.0885 183.805 75.0885C183.976 75.0885 184.176 75.0803 184.404 75.064L184.747 75.0517C184.763 75.0517 184.771 75.0763 184.771 75.1253C184.771 75.1744 184.763 75.199 184.747 75.199C184.527 75.199 184.417 75.3013 184.417 75.5058C184.417 75.6285 184.457 75.7758 184.539 75.9476L186.484 79.9731L186.154 80.6358L187.304 77.6413L187.487 77.8131L186.288 80.7831ZM188.038 76.0213C188.136 75.7594 188.184 75.5672 188.184 75.4444C188.184 75.3544 188.156 75.2931 188.099 75.2603C188.05 75.2194 187.972 75.199 187.866 75.199C187.85 75.199 187.842 75.1744 187.842 75.1253C187.842 75.0763 187.85 75.0517 187.866 75.0517C187.94 75.0517 188.03 75.0599 188.136 75.0762C188.242 75.0844 188.344 75.0885 188.441 75.0885C188.572 75.0885 188.735 75.0803 188.931 75.064L189.347 75.0517C189.371 75.0517 189.383 75.0763 189.383 75.1253C189.383 75.1744 189.371 75.199 189.347 75.199C189.094 75.199 188.886 75.2603 188.723 75.3831C188.56 75.5058 188.409 75.7431 188.27 76.0949L187.597 77.8131L187.438 77.6413L188.038 76.0213ZM193.539 75.2113C193.23 75.2113 192.985 75.2562 192.805 75.3462C192.626 75.4281 192.483 75.5713 192.377 75.7758C192.279 75.9803 192.202 76.2708 192.145 76.6472C192.145 76.6635 192.12 76.6717 192.072 76.6717C192.031 76.6717 192.01 76.6635 192.01 76.6472C192.035 76.459 192.063 76.1563 192.096 75.739C192.129 75.3217 192.145 75.0026 192.145 74.7817C192.145 74.7408 192.169 74.7203 192.218 74.7203C192.267 74.7203 192.292 74.7408 192.292 74.7817C192.292 74.8881 192.353 74.9576 192.475 74.9903C192.598 75.0149 192.748 75.0272 192.928 75.0272C193.646 75.0435 194.261 75.0517 194.775 75.0517L195.839 75.0394C195.986 75.0313 196.178 75.0272 196.414 75.0272C196.708 75.0272 196.924 75.0108 197.063 74.9781C197.201 74.9372 197.291 74.8553 197.332 74.7326C197.348 74.7081 197.377 74.6958 197.417 74.6958C197.458 74.6958 197.479 74.7081 197.479 74.7326C197.43 75.6163 197.405 76.2544 197.405 76.6472C197.405 76.6635 197.381 76.6717 197.332 76.6717C197.291 76.6717 197.271 76.6635 197.271 76.6472C197.262 76.279 197.218 75.9926 197.136 75.7881C197.063 75.5835 196.936 75.4362 196.757 75.3462C196.577 75.2562 196.329 75.2113 196.011 75.2113C195.66 75.2113 195.423 75.2685 195.301 75.3831C195.187 75.4894 195.13 75.7103 195.13 76.0458V79.8013C195.13 80.0549 195.154 80.239 195.203 80.3535C195.252 80.4681 195.346 80.5458 195.485 80.5867C195.631 80.6276 195.864 80.6481 196.182 80.6481C196.206 80.6481 196.219 80.6726 196.219 80.7217C196.219 80.7708 196.206 80.7953 196.182 80.7953C195.929 80.7953 195.733 80.7913 195.595 80.7831L194.738 80.7708L193.919 80.7831C193.772 80.7913 193.568 80.7953 193.307 80.7953C193.291 80.7953 193.283 80.7708 193.283 80.7217C193.283 80.6726 193.291 80.6481 193.307 80.6481C193.617 80.6481 193.845 80.6276 193.992 80.5867C194.139 80.5458 194.237 80.4681 194.286 80.3535C194.343 80.2308 194.371 80.0467 194.371 79.8013V76.0213C194.371 75.784 194.351 75.6122 194.31 75.5058C194.278 75.3913 194.204 75.3135 194.09 75.2726C193.976 75.2317 193.792 75.2113 193.539 75.2113ZM203.29 76.0703C203.29 75.8249 203.266 75.6449 203.217 75.5303C203.176 75.4076 203.09 75.3217 202.96 75.2726C202.838 75.2235 202.646 75.199 202.385 75.199C202.36 75.199 202.348 75.1744 202.348 75.1253C202.348 75.0763 202.36 75.0517 202.385 75.0517L202.923 75.064C203.217 75.0803 203.466 75.0885 203.669 75.0885C203.849 75.0885 204.094 75.0803 204.403 75.064L204.954 75.0517C204.978 75.0517 204.991 75.0763 204.991 75.1253C204.991 75.1744 204.978 75.199 204.954 75.199C204.685 75.199 204.485 75.2235 204.354 75.2726C204.232 75.3135 204.147 75.3913 204.098 75.5058C204.049 75.6203 204.024 75.8003 204.024 76.0458V79.8013C204.024 80.0467 204.049 80.2308 204.098 80.3535C204.147 80.4681 204.232 80.5458 204.354 80.5867C204.485 80.6276 204.685 80.6481 204.954 80.6481C204.978 80.6481 204.991 80.6726 204.991 80.7217C204.991 80.7708 204.978 80.7953 204.954 80.7953C204.726 80.7953 204.542 80.7913 204.403 80.7831L203.669 80.7708L202.923 80.7831C202.793 80.7913 202.613 80.7953 202.385 80.7953C202.36 80.7953 202.348 80.7708 202.348 80.7217C202.348 80.6726 202.36 80.6481 202.385 80.6481C202.654 80.6481 202.85 80.6276 202.972 80.5867C203.094 80.5458 203.176 80.4681 203.217 80.3535C203.266 80.2308 203.29 80.0467 203.29 79.8013V76.0703ZM199.461 77.7885H203.608V78.0094H199.461V77.7885ZM199.131 76.0458C199.131 75.8003 199.107 75.6203 199.058 75.5058C199.017 75.3913 198.931 75.3135 198.801 75.2726C198.678 75.2235 198.483 75.199 198.214 75.199C198.197 75.199 198.189 75.1744 198.189 75.1253C198.189 75.0763 198.197 75.0517 198.214 75.0517L198.764 75.064C199.074 75.0803 199.314 75.0885 199.486 75.0885C199.69 75.0885 199.947 75.0803 200.256 75.064L200.782 75.0517C200.799 75.0517 200.807 75.0763 200.807 75.1253C200.807 75.1744 200.799 75.199 200.782 75.199C200.521 75.199 200.326 75.2235 200.195 75.2726C200.065 75.3217 199.975 75.4076 199.926 75.5303C199.885 75.6449 199.865 75.8249 199.865 76.0703V79.8013C199.865 80.0549 199.885 80.239 199.926 80.3535C199.975 80.4681 200.061 80.5458 200.183 80.5867C200.305 80.6276 200.505 80.6481 200.782 80.6481C200.799 80.6481 200.807 80.6726 200.807 80.7217C200.807 80.7708 200.799 80.7953 200.782 80.7953C200.554 80.7953 200.375 80.7913 200.244 80.7831L199.486 80.7708L198.764 80.7831C198.625 80.7913 198.438 80.7953 198.201 80.7953C198.185 80.7953 198.177 80.7708 198.177 80.7217C198.177 80.6726 198.185 80.6481 198.201 80.6481C198.47 80.6481 198.666 80.6276 198.788 80.5867C198.919 80.5458 199.009 80.4681 199.058 80.3535C199.107 80.2308 199.131 80.0467 199.131 79.8013V76.0458Z" fill="#776B5D"/>
</svg>
