<svg width="154" height="45" viewBox="0 0 154 45" fill="none" xmlns="http://www.w3.org/2000/svg">
<path d="M5.24449 36.4833C6.21313 36.8623 7.31347 37.2981 7.31347 38.4254C7.31347 39.6476 6.15671 40.377 5.03759 40.377C3.09084 40.377 2.3949 38.5297 2.3949 38.5297L3.15667 38.1507C3.15667 38.1507 3.58928 40.2633 5.04699 40.2633C5.9404 40.2633 6.61753 39.6475 6.61753 38.8991C6.61753 38.0086 5.54543 37.5823 4.75545 37.2602L4.68021 37.2318C3.6269 36.8149 2.8181 36.4075 2.8181 35.3465C2.8181 34.2475 3.73035 33.4233 4.94354 33.4233C6.06266 33.4233 6.81503 33.8118 7.20061 34.6076L6.52349 35.0433C6.52349 35.0433 6.12849 33.6128 4.8683 33.6128C4.20998 33.6128 3.48583 34.1149 3.48583 34.9297C3.48583 35.7633 4.36986 36.1233 5.14104 36.436L5.24449 36.4833ZM10.0851 33.5654C12.2388 33.5654 12.4739 34.9107 12.4739 35.4886C12.4739 36.5307 11.524 37.2507 10.1604 37.2507H8.88133V39.5718C8.88133 39.9318 8.99419 40.0739 9.11645 40.1781C9.14466 40.2065 9.12585 40.2633 9.08823 40.2633H7.82802C7.78099 40.2633 7.76219 40.2065 7.7998 40.1781C7.92206 40.0739 8.03492 39.9318 8.03492 39.5718V34.257C8.03492 33.897 7.92206 33.7549 7.7998 33.6507C7.76219 33.6223 7.78099 33.5654 7.82802 33.5654H10.0851ZM9.79358 37.0328C11.129 37.0328 11.5993 36.1897 11.5993 35.4033C11.5993 34.9202 11.4488 33.7833 10.0851 33.7833H8.88133V37.0328H9.79358ZM17.4573 40.1781H17.4479C17.4855 40.2065 17.4667 40.2633 17.4197 40.2633H16.846C16.4416 40.2633 16.1125 39.9791 15.9808 39.5907V39.5812C15.962 39.5244 15.7269 38.8612 15.4353 37.9991H12.661L12.5763 38.236C12.3694 38.8328 12.3412 39.657 12.5293 40.2633H11.8898C11.8898 40.2633 11.9086 39.6097 12.3412 38.3307C12.5105 37.8286 14.0717 33.5654 14.0717 33.5654H14.73C14.73 33.5654 16.8648 39.316 16.9495 39.5244C17.1187 39.9033 17.3256 40.0833 17.4573 40.1781ZM12.7362 37.8097H15.3695C14.8146 36.1991 14.0811 34.096 14.0811 34.096L12.7362 37.8097ZM22.932 38.1128L23.1107 38.1602C22.6687 39.5907 21.4649 40.377 20.2047 40.377C18.6999 40.377 17.1012 39.0602 17.1012 36.9002C17.1012 34.9391 18.3332 33.4233 20.3269 33.4233C21.7282 33.4233 22.7627 34.1433 22.7627 34.1433L22.3677 35.1191C21.6624 34.0581 20.8066 33.6507 20.0636 33.6507C19.6874 33.6507 19.3395 33.7454 19.0479 33.916C18.0604 34.4844 17.5808 35.9623 18.2297 37.497C18.8128 38.8802 19.9225 39.5718 20.9288 39.5718C21.7847 39.5718 22.5746 39.0791 22.932 38.1128ZM28.2636 39.3444C28.2919 39.297 28.3671 39.3254 28.3671 39.3823V40.2633H23.5237C23.4767 40.2633 23.4579 40.2065 23.4955 40.1781C23.6178 40.0739 23.7306 39.9318 23.7306 39.5718V34.257C23.7306 33.897 23.6178 33.7549 23.4955 33.6507C23.4579 33.6223 23.4767 33.5654 23.5237 33.5654H28.1414V34.4465C28.1414 34.5033 28.0756 34.5318 28.0379 34.4844C27.8592 34.2381 27.436 33.7833 26.7965 33.7833H24.577V36.7012H26.0159C26.9188 36.7012 27.0222 36.4075 27.2103 36.1612C27.2385 36.1139 27.3138 36.1328 27.3138 36.1897V37.4307C27.3138 37.4875 27.2385 37.516 27.2103 37.4686C27.0222 37.2223 26.9188 36.9286 26.0159 36.9286H24.577V40.0454H27.0128C27.6618 40.0454 28.0756 39.5907 28.2636 39.3444ZM32.2205 33.6507C32.1829 33.6223 32.2017 33.5654 32.2487 33.5654H36.5372V34.4465C36.5372 34.5033 36.4714 34.5318 36.4338 34.4844C36.2551 34.2381 35.8319 33.7833 35.1829 33.7833H33.2926V36.7012H34.4588C35.3616 36.7012 35.4651 36.4075 35.6438 36.1612C35.6814 36.1139 35.7472 36.1328 35.7472 36.1897V37.4307C35.7472 37.4875 35.6814 37.516 35.6438 37.4686C35.4651 37.2223 35.3616 36.9286 34.4588 36.9286H33.302V39.5718C33.302 39.9318 33.4149 40.0739 33.5371 40.1781C33.5654 40.2065 33.5466 40.2633 33.5089 40.2633H32.2487C32.2017 40.2633 32.1829 40.2065 32.2205 40.1781C32.3428 40.0739 32.4556 39.9318 32.4556 39.5718V34.257C32.4556 33.897 32.3428 33.7549 32.2205 33.6507ZM39.7136 33.4423C41.4723 33.4423 42.9112 34.996 42.9112 36.9097C42.9112 38.8139 41.4723 40.3676 39.7136 40.3676C37.9549 40.3676 36.5255 38.8139 36.5255 36.9097C36.5255 34.996 37.9549 33.4423 39.7136 33.4423ZM40.7387 39.9033C41.9237 39.4486 42.4315 37.7244 41.8673 36.057C41.4158 34.7023 40.3625 33.7644 39.3092 33.7644C39.1023 33.7644 38.8954 33.8023 38.7073 33.8781C37.5129 34.3328 37.0145 36.057 37.5694 37.7244C38.0302 39.0791 39.0835 40.017 40.1274 40.017C40.3437 40.017 40.5412 39.9791 40.7387 39.9033ZM49.1624 40.1402C49.2941 40.2349 49.1718 40.2633 49.1718 40.2633L48.6922 40.2539C48.1467 40.2539 47.8646 39.9412 47.6388 39.5907C47.2909 39.0412 46.8112 38.2928 46.5667 37.9328C46.3034 37.5349 46.0495 37.3075 45.6921 37.2507H44.4883V39.5718C44.4883 39.9318 44.6012 40.0739 44.7234 40.1781C44.7516 40.2065 44.7328 40.2633 44.6952 40.2633H43.435C43.388 40.2633 43.3692 40.2065 43.4068 40.1781C43.529 40.0739 43.6419 39.9318 43.6419 39.5718V34.257C43.6419 33.897 43.529 33.7549 43.4068 33.6507C43.3692 33.6223 43.388 33.5654 43.435 33.5654H45.6921C47.8457 33.5654 48.0809 34.9107 48.0809 35.4886C48.0809 36.256 47.5636 36.8433 46.7454 37.0991C46.9523 37.2128 47.1404 37.3739 47.2909 37.5728C47.4602 37.7812 48.3442 39.1265 48.5699 39.4675C48.805 39.8086 49.0119 40.0265 49.1624 40.1402ZM45.4006 37.0328C46.736 37.0328 47.2062 36.1897 47.2062 35.4033C47.2062 34.9202 47.0558 33.7833 45.6921 33.7833H44.4883V37.0328H45.4006ZM58.875 34.257V39.5718C58.875 39.9318 58.9879 40.0739 59.1101 40.1781C59.1478 40.2065 59.1289 40.2633 59.0819 40.2633H57.8216C57.7746 40.2633 57.7652 40.2065 57.7934 40.1781C57.9156 40.0739 58.0285 39.9318 58.0285 39.5718V34.2097L55.9595 40.2539H55.7244L53.3544 34.3139V39.5718C53.3544 39.9318 53.4767 40.0739 53.5895 40.1781C53.6272 40.2065 53.6083 40.2633 53.5707 40.2633H52.9312C52.8842 40.2633 52.8748 40.2065 52.903 40.1781C53.0253 40.0739 53.1381 39.9318 53.1381 39.5718V34.257C53.1381 33.897 53.0253 33.7549 52.903 33.6412C52.8654 33.6128 52.8842 33.5654 52.9312 33.5654H53.8529C53.9657 33.5654 54.0692 33.6412 54.1162 33.7454L56.157 38.9465L57.9627 33.7549C58.0097 33.6412 58.1131 33.5654 58.226 33.5654H59.0819C59.1289 33.5654 59.1478 33.6128 59.1195 33.6412C58.9973 33.7549 58.875 33.897 58.875 34.257ZM62.7932 33.4423C64.5519 33.4423 65.9908 34.996 65.9908 36.9097C65.9908 38.8139 64.5519 40.3676 62.7932 40.3676C61.0346 40.3676 59.6051 38.8139 59.6051 36.9097C59.6051 34.996 61.0346 33.4423 62.7932 33.4423ZM63.8183 39.9033C65.0033 39.4486 65.5111 37.7244 64.9469 36.057C64.4954 34.7023 63.4421 33.7644 62.3888 33.7644C62.1819 33.7644 61.975 33.8023 61.7869 33.8781C60.5925 34.3328 60.0941 36.057 60.649 37.7244C61.1098 39.0791 62.1631 40.017 63.207 40.017C63.4233 40.017 63.6208 39.9791 63.8183 39.9033ZM70.552 33.5654H71.1915C71.1915 33.5654 71.1727 34.2191 70.7495 35.4981C70.5802 36.0002 69.0096 40.2633 69.0096 40.2633H68.3513C68.3513 40.2633 66.2259 34.5128 66.1318 34.3139C65.9626 33.9349 65.7557 33.7454 65.6334 33.6507C65.5958 33.6223 65.6146 33.5654 65.6616 33.5654H66.2353C66.6397 33.5654 66.9688 33.8497 67.1005 34.2381C67.1569 34.3991 69.0002 39.7328 69.0002 39.7328L70.505 35.5928C70.7213 34.996 70.7495 34.1718 70.552 33.5654ZM76.3058 39.3444C76.334 39.297 76.4093 39.3254 76.4093 39.3823V40.2633H71.5659C71.5189 40.2633 71.5001 40.2065 71.5377 40.1781C71.66 40.0739 71.7728 39.9318 71.7728 39.5718V34.257C71.7728 33.897 71.66 33.7549 71.5377 33.6507C71.5001 33.6223 71.5189 33.5654 71.5659 33.5654H76.1836V34.4465C76.1836 34.5033 76.1177 34.5318 76.0801 34.4844C75.9014 34.2381 75.4782 33.7833 74.8387 33.7833H72.6192V36.7012H74.0581C74.961 36.7012 75.0644 36.4075 75.2525 36.1612C75.2807 36.1139 75.356 36.1328 75.356 36.1897V37.4307C75.356 37.4875 75.2807 37.516 75.2525 37.4686C75.0644 37.2223 74.961 36.9286 74.0581 36.9286H72.6192V40.0454H75.055C75.7039 40.0454 76.1177 39.5907 76.3058 39.3444ZM82.7721 34.257V39.5718C82.7721 39.9318 82.8849 40.0739 83.0072 40.1781C83.0448 40.2065 83.026 40.2633 82.979 40.2633H81.7188C81.6717 40.2633 81.6623 40.2065 81.6905 40.1781C81.8128 40.0739 81.9257 39.9318 81.9257 39.5718V34.2097L79.8566 40.2539H79.6215L77.2516 34.3139V39.5718C77.2516 39.9318 77.3738 40.0739 77.4867 40.1781C77.5243 40.2065 77.5055 40.2633 77.4679 40.2633H76.8284C76.7813 40.2633 76.7719 40.2065 76.8002 40.1781C76.9224 40.0739 77.0353 39.9318 77.0353 39.5718V34.257C77.0353 33.897 76.9224 33.7549 76.8002 33.6412C76.7625 33.6128 76.7813 33.5654 76.8284 33.5654H77.75C77.8629 33.5654 77.9663 33.6412 78.0134 33.7454L80.0541 38.9465L81.8598 33.7549C81.9069 33.6412 82.0103 33.5654 82.1232 33.5654H82.979C83.026 33.5654 83.0448 33.6128 83.0166 33.6412C82.8943 33.7549 82.7721 33.897 82.7721 34.257ZM88.3743 39.3444C88.4025 39.297 88.4777 39.3254 88.4777 39.3823V40.2633H83.6343C83.5873 40.2633 83.5685 40.2065 83.6061 40.1781C83.7284 40.0739 83.8413 39.9318 83.8413 39.5718V34.257C83.8413 33.897 83.7284 33.7549 83.6061 33.6507C83.5685 33.6223 83.5873 33.5654 83.6343 33.5654H88.252V34.4465C88.252 34.5033 88.1862 34.5318 88.1485 34.4844C87.9699 34.2381 87.5466 33.7833 86.9071 33.7833H84.6877V36.7012H86.1266C87.0294 36.7012 87.1329 36.4075 87.3209 36.1612C87.3492 36.1139 87.4244 36.1328 87.4244 36.1897V37.4307C87.4244 37.4875 87.3492 37.516 87.3209 37.4686C87.1329 37.2223 87.0294 36.9286 86.1266 36.9286H84.6877V40.0454H87.1235C87.7724 40.0454 88.1862 39.5907 88.3743 39.3444ZM94.2474 33.5654C94.285 33.5654 94.3038 33.6223 94.2662 33.6507C94.1534 33.7549 94.0311 33.897 94.0311 34.257V40.2539L93.8148 40.2633L89.5169 34.3991L89.3288 34.1718V35.4128C89.3288 36.6823 89.658 39.4486 90.7301 40.1781C90.7677 40.2065 90.7489 40.2633 90.7113 40.2633H88.9056C88.8586 40.2633 88.8398 40.2065 88.8774 40.1781C88.9997 40.0739 89.1125 39.9318 89.1125 39.5718V34.257C89.1125 33.897 88.9997 33.7549 88.8774 33.6507C88.8586 33.6318 88.8586 33.6128 88.868 33.5939L88.8586 33.5844H88.8774C88.8868 33.5749 88.8868 33.5654 88.9056 33.5654H90.0342L93.8148 38.6244V38.416C93.8148 37.1465 93.4856 34.3802 92.4135 33.6507C92.3759 33.6223 92.3947 33.5654 92.4417 33.5654H94.2474ZM94.546 33.5654H99.8126V34.4654C99.8126 34.5223 99.7467 34.5507 99.7091 34.5033C99.521 34.2665 99.0696 33.7833 98.5335 33.7833H97.6025V39.5718C97.6025 39.9318 97.7154 40.0739 97.8376 40.1781C97.8658 40.2065 97.8564 40.2633 97.8094 40.2633H96.5492C96.5022 40.2633 96.4928 40.2065 96.521 40.1781C96.6432 40.0739 96.7561 39.9318 96.7561 39.5718V33.7833H95.825C95.289 33.7833 94.8375 34.2665 94.6495 34.5033C94.6118 34.5507 94.546 34.5223 94.546 34.4654V33.5654ZM105.604 40.4054C104.645 40.4054 103.836 39.8276 103.62 39.0033C103.413 38.1981 103.573 37.0802 105.491 36.3033L105.407 36.1897C105.153 35.8297 104.842 35.3749 104.852 34.8444C104.861 34.077 105.369 33.5465 106.168 33.4802C106.215 33.4802 106.262 33.4707 106.3 33.4707C106.996 33.4707 107.532 33.9633 107.588 34.636C107.654 35.517 106.78 36.0191 106.479 36.1707L108.237 38.3591C108.341 38.1412 108.576 37.6297 108.679 37.0897L108.698 37.0233H108.999L108.98 37.1181C108.839 37.8475 108.538 38.4728 108.444 38.6433L109.77 40.3012H108.661L107.946 39.3823C107.72 39.6191 106.921 40.3391 105.717 40.4054H105.604ZM105.67 36.5591C105.491 36.6349 104.88 36.8907 104.645 37.2602C104.344 37.7339 104.325 38.3118 104.588 38.8423C104.87 39.4107 105.416 39.8086 105.961 39.8465H106.084C106.921 39.8465 107.551 39.3065 107.72 39.136L105.67 36.5591ZM106.215 33.736C105.943 33.736 105.717 33.8781 105.595 34.1054C105.454 34.3612 105.482 34.6644 105.66 34.977C105.896 35.356 106.197 35.7918 106.3 35.9528C106.385 35.896 106.563 35.7728 106.704 35.517C106.968 35.0528 106.987 34.4654 106.77 34.077C106.676 33.9254 106.516 33.736 106.215 33.736ZM118.785 36.8339H119.885V40.2633H119.782L119.039 39.496C118.465 40.0739 117.704 40.377 116.914 40.377C115.409 40.377 113.81 39.0602 113.81 36.9002C113.81 34.9391 115.042 33.4233 117.036 33.4233C118.437 33.4233 119.472 34.1433 119.472 34.1433L119.077 35.1191C118.371 34.0581 117.516 33.6507 116.773 33.6507C116.396 33.6507 116.048 33.7454 115.757 33.916C114.769 34.4844 114.29 35.9623 114.939 37.497C115.541 38.9181 116.688 39.6665 117.713 39.6665C118.193 39.6665 118.653 39.5054 119.02 39.1739L119.011 37.876C119.011 37.336 118.851 37.0423 118.748 36.9191C118.719 36.8812 118.738 36.8339 118.785 36.8339ZM126.236 40.1402C126.368 40.2349 126.245 40.2633 126.245 40.2633L125.766 40.2539C125.22 40.2539 124.938 39.9412 124.712 39.5907C124.364 39.0412 123.885 38.2928 123.64 37.9328C123.377 37.5349 123.123 37.3075 122.766 37.2507H121.562V39.5718C121.562 39.9318 121.675 40.0739 121.797 40.1781C121.825 40.2065 121.806 40.2633 121.769 40.2633H120.509C120.462 40.2633 120.443 40.2065 120.48 40.1781C120.603 40.0739 120.715 39.9318 120.715 39.5718V34.257C120.715 33.897 120.603 33.7549 120.48 33.6507C120.443 33.6223 120.462 33.5654 120.509 33.5654H122.766C124.919 33.5654 125.154 34.9107 125.154 35.4886C125.154 36.256 124.637 36.8433 123.819 37.0991C124.026 37.2128 124.214 37.3739 124.364 37.5728C124.534 37.7812 125.418 39.1265 125.643 39.4675C125.879 39.8086 126.085 40.0265 126.236 40.1402ZM122.474 37.0328C123.81 37.0328 124.28 36.1897 124.28 35.4033C124.28 34.9202 124.129 33.7833 122.766 33.7833H121.562V37.0328H122.474ZM129.076 33.4423C130.834 33.4423 132.273 34.996 132.273 36.9097C132.273 38.8139 130.834 40.3676 129.076 40.3676C127.317 40.3676 125.887 38.8139 125.887 36.9097C125.887 34.996 127.317 33.4423 129.076 33.4423ZM130.101 39.9033C131.286 39.4486 131.793 37.7244 131.229 36.057C130.778 34.7023 129.724 33.7644 128.671 33.7644C128.464 33.7644 128.257 33.8023 128.069 33.8781C126.875 34.3328 126.376 36.057 126.931 37.7244C127.392 39.0791 128.445 40.017 129.489 40.017C129.706 40.017 129.903 39.9791 130.101 39.9033ZM139.891 33.5654H140.53C140.53 33.5654 140.511 34.2191 140.079 35.4981C139.91 36.0002 138.348 40.2633 138.348 40.2633H137.69C137.69 40.2633 137.069 38.596 136.477 37.0233C135.969 38.4254 135.292 40.2633 135.292 40.2633H134.634C134.634 40.2633 132.508 34.5128 132.414 34.3139C132.245 33.9349 132.038 33.7454 131.916 33.6507C131.878 33.6223 131.897 33.5654 131.944 33.5654H132.518C132.922 33.5654 133.251 33.8497 133.383 34.2381V34.257C133.439 34.3991 135.283 39.7328 135.283 39.7328L136.373 36.7297C135.913 35.4981 135.499 34.3991 135.461 34.3139C135.292 33.9349 135.085 33.7454 134.963 33.6507C134.925 33.6223 134.944 33.5654 134.991 33.5654H135.565C135.978 33.5654 136.298 33.8497 136.43 34.2381V34.257C136.449 34.2949 136.609 34.7591 136.834 35.4033C136.994 34.8349 137.013 34.1149 136.834 33.5654H137.474C137.474 33.5654 137.455 34.2191 137.032 35.4981C137.013 35.5454 136.985 35.6212 136.947 35.7254C137.511 37.3549 138.33 39.7328 138.33 39.7328L139.834 35.5928C140.051 34.996 140.079 34.1718 139.891 33.5654ZM140.549 33.5654H145.816V34.4654C145.816 34.5223 145.75 34.5507 145.712 34.5033C145.524 34.2665 145.073 33.7833 144.537 33.7833H143.606V39.5718C143.606 39.9318 143.718 40.0739 143.841 40.1781C143.869 40.2065 143.86 40.2633 143.812 40.2633H142.552C142.505 40.2633 142.496 40.2065 142.524 40.1781C142.646 40.0739 142.759 39.9318 142.759 39.5718V33.7833H141.828C141.292 33.7833 140.841 34.2665 140.653 34.5033C140.615 34.5507 140.549 34.5223 140.549 34.4654V33.5654ZM151.164 39.5718C151.164 39.9318 151.286 40.0739 151.408 40.1781C151.437 40.2065 151.418 40.2633 151.38 40.2633H150.111C150.073 40.2633 150.054 40.2065 150.092 40.1781C150.205 40.0739 150.327 39.9318 150.327 39.5718V36.777L147.176 36.7675V39.5718C147.176 39.9318 147.289 40.0739 147.412 40.1781C147.44 40.2065 147.421 40.2633 147.383 40.2633H146.123C146.076 40.2633 146.057 40.2065 146.095 40.1781C146.217 40.0739 146.33 39.9318 146.33 39.5718V34.257C146.33 33.897 146.217 33.7549 146.095 33.6507C146.057 33.6223 146.076 33.5654 146.123 33.5654H147.383C147.421 33.5654 147.44 33.6223 147.412 33.6507C147.289 33.7549 147.176 33.897 147.176 34.257V36.5875H150.327V34.257C150.327 33.897 150.205 33.7549 150.092 33.6507C150.054 33.6223 150.073 33.5654 150.111 33.5654H151.38C151.418 33.5654 151.437 33.6223 151.408 33.6507C151.286 33.7549 151.164 33.897 151.164 34.257V39.5718Z" fill="#5F5B5B"/>
<path d="M40.6778 16.0913L41.2703 16.1765C40.2264 18.7628 38.3079 20.866 34.9504 20.866C31.198 20.866 28.1791 17.4555 28.1791 13.2776C28.1791 9.07125 31.0287 5.6323 34.7811 5.6323C38.8157 5.6323 40.6496 8.3323 40.6496 10.6913C40.6496 14.4713 35.7686 16.7734 33.0037 17.3134C34.104 18.3365 35.4301 18.8197 36.6715 18.8197C38.4207 18.8197 40.0571 17.8534 40.6778 16.0913ZM31.3955 14.9544C31.6494 15.5797 31.988 16.1197 32.3548 16.6028C37.2357 16.3186 38.1104 11.3449 37.7436 9.46914C37.3204 7.30915 35.7404 6.37125 34.1886 6.37125C33.4269 6.37125 32.6651 6.59862 32.0726 7.05336C30.8876 7.96283 29.7591 11.2028 31.3955 14.9544ZM63.7513 20.326C63.8359 20.4112 63.7795 20.5534 63.6667 20.5534H59.886C59.745 20.5534 59.6885 20.4112 59.8014 20.326C60.1682 19.9849 60.5067 19.5586 60.5067 18.4786V10.066C60.5067 8.30388 59.6039 6.51336 57.9111 6.51336C55.9926 6.51336 54.5255 9.01441 54.5255 11.2881V18.4786C54.5255 19.5586 54.8922 19.9849 55.2308 20.326C55.3437 20.4112 55.2872 20.5534 55.1744 20.5534H51.3655C51.2527 20.5534 51.1962 20.4112 51.2809 20.326C51.6477 19.9849 52.0144 19.5586 52.0144 18.4786V10.066C52.0144 8.30388 51.1116 6.51336 49.4188 6.51336C47.6131 6.51336 46.0331 8.75862 45.8921 10.9186V18.4786C45.8921 19.5586 46.2306 19.9849 46.5974 20.326C46.682 20.4112 46.6256 20.5534 46.5128 20.5534H42.7321C42.5911 20.5534 42.5346 20.4112 42.6475 20.326C43.0143 19.9849 43.3528 19.5586 43.3528 18.4786V9.18493C43.3528 8.16178 43.0425 7.59336 42.7885 7.30915C42.7039 7.19546 42.7603 7.02493 42.9014 6.96809L45.6099 6.00178C45.7228 5.97336 45.8921 6.05862 45.8921 6.20072V8.64494C46.3999 7.36599 47.9799 5.66073 50.0677 5.66073C52.748 5.66073 53.9048 7.2523 54.328 8.95757C54.8358 7.45125 56.3876 5.66073 58.56 5.66073C62.2278 5.66073 63.046 8.67336 63.046 10.8049V18.4786C63.046 19.5586 63.3845 19.9849 63.7513 20.326ZM72.4623 5.66073C76.0737 5.66073 78.359 9.04283 78.359 13.107C78.359 17.4555 75.6787 20.8944 72.0391 20.8944C70.3463 20.8944 69.0484 19.9565 68.4277 19.1891V23.9923C68.4277 25.0723 68.7663 25.4986 69.1331 25.8397C69.2177 25.9249 69.1613 26.0955 69.0484 26.0955H65.2678C65.1267 26.0955 65.0703 25.9249 65.1832 25.8397C65.5499 25.4986 65.8885 25.0723 65.8885 23.9923V9.18493C65.8885 8.16178 65.5781 7.59336 65.3242 7.30915C65.2396 7.19546 65.296 7.02493 65.4371 6.96809L68.1456 6.00178C68.2584 5.97336 68.4277 6.05862 68.4277 6.20072V8.1902C69.1049 6.91125 70.4309 5.66073 72.4623 5.66073ZM71.3337 20.0418C74.1833 20.0418 75.9044 16.2618 75.9044 13.2207C75.9044 8.92915 73.5062 6.39967 71.7287 6.39967C69.6691 6.39967 68.6252 8.7302 68.4277 9.92388V17.3986C68.597 18.6207 69.9513 20.0418 71.3337 20.0418ZM92.5669 20.326C92.6516 20.4112 92.5951 20.5534 92.4823 20.5534H90.3945C89.802 20.5534 89.3224 20.0702 89.3224 19.4734V18.7344C88.1656 20.1555 86.2188 20.8944 84.3849 20.8944C81.9021 20.8944 79.5886 19.587 79.5886 16.8586C79.5886 10.6913 89.2095 11.8849 89.2095 8.38915C89.2095 7.16704 88.2502 6.1723 86.3881 6.1723C84.6389 6.1723 83.2 7.70704 82.2407 9.01441L80.83 7.84915C82.1279 6.48493 84.0746 5.6323 86.1342 5.6323C89.5481 5.6323 91.8616 7.39441 91.8616 10.8618L91.8334 18.4786C91.8334 19.5586 92.2001 19.9849 92.5669 20.326ZM89.3224 16.1481V9.69651C88.2784 11.4302 82.1561 12.3113 82.1561 16.1481C82.1561 18.1376 83.4821 20.0986 85.7392 20.0986H85.7956C87.7706 20.0702 89.3224 18.2228 89.3224 16.1481ZM99.8308 19.6155L99.9154 20.326C99.2383 20.6102 98.5612 20.7523 97.884 20.7523C96.1912 20.7523 94.7241 19.7576 94.7241 17.5407V6.65546H92.862V6.00178H94.7523V3.55757C94.7523 2.67651 95.2037 1.8523 95.9937 1.39757L96.8966 0.885988C97.0658 0.800725 97.2633 0.914409 97.2633 1.11336V6.00178H99.5204V6.65546H97.2633V18.1091C97.2633 19.1891 97.9969 19.9281 98.8715 19.9281C99.1819 19.9281 99.5204 19.8144 99.8308 19.6155ZM113.871 20.326C113.955 20.4112 113.899 20.5534 113.786 20.5534H109.977C109.864 20.5534 109.808 20.4112 109.921 20.326C110.259 19.9849 110.626 19.5586 110.626 18.4786V10.066C110.626 8.30388 109.723 6.51336 108.059 6.51336C106.168 6.51336 104.222 8.90072 104.137 11.1176V18.4786C104.137 19.5586 104.475 19.9849 104.842 20.326C104.927 20.4112 104.87 20.5534 104.758 20.5534H100.977C100.836 20.5534 100.779 20.4112 100.892 20.326C101.259 19.9849 101.598 19.5586 101.598 18.4786V3.67125C101.598 2.61967 101.287 2.05125 101.033 1.76704C100.949 1.65336 101.005 1.51125 101.146 1.45441L103.855 0.488093C103.968 0.43125 104.137 0.544935 104.137 0.687041V8.8723C104.673 7.56494 106.366 5.66073 108.708 5.66073C112.347 5.66073 113.165 8.67336 113.165 10.8049V17.1997H113.137V18.4786C113.137 19.5586 113.504 19.9849 113.871 20.326ZM124.267 6.00178H126.185C126.185 6.00178 126.129 7.96283 124.831 11.7713C124.605 12.4534 122.348 19.1039 121.558 21.2639C121.333 21.8891 120.007 26.6355 116.508 26.6355C116.113 26.6355 115.718 26.5786 115.295 26.4649L115.097 24.5607C115.097 24.5607 116.028 25.1291 117.185 25.1291C117.665 25.1291 118.173 25.0155 118.681 24.7313C120.007 23.9639 120.938 21.207 120.938 21.207C120.938 21.207 115.436 8.78704 115.182 8.21862C114.674 7.08178 114.053 6.54178 113.687 6.25757C113.574 6.1723 113.63 6.00178 113.771 6.00178H115.492C116.706 6.00178 117.496 6.65546 118.088 8.04809C118.257 8.44599 122.207 17.6544 122.207 17.6544L124.098 12.0839C124.746 10.2934 124.831 7.82072 124.267 6.00178Z" fill="#5F5B5B"/>
<path d="M2.64503 29.9014H151.355" stroke="#5F5B5B" stroke-linecap="round"/>
</svg>
