<svg width="25" height="20" viewBox="0 0 25 20" fill="none" xmlns="http://www.w3.org/2000/svg">
<path d="M0.999988 18.1263C1.51124 17.7962 2.05991 17.4147 2.61004 17.0161C5.31173 15.0583 8.90381 14.6868 11.8083 16.3287L13.5272 17.3002C15.9931 18.6942 19.0124 18.6801 21.4652 17.2633L24.4881 15.5173" stroke="#776B5D" stroke-linecap="round"/>
<path d="M1.00594 6.12631C1.51719 5.7962 2.06586 5.41471 2.61599 5.01607C5.31769 3.05833 8.90976 2.68683 11.8143 4.32865L13.5331 5.30025C15.9991 6.69415 19.0183 6.6801 21.4712 5.2633L24.4941 3.51725" stroke="#776B5D" stroke-linecap="round"/>
<path d="M0.999988 12.0763C1.51124 11.7461 2.05991 11.3647 2.61004 10.966C5.31173 9.00829 8.90381 8.63679 11.8083 10.2786L13.5272 11.2502C15.9931 12.6441 19.0124 12.63 21.4652 11.2132L24.4881 9.4672" stroke="#776B5D" stroke-linecap="round"/>
</svg>
