<svg width="1806" height="123" viewBox="0 0 1806 123" fill="none" xmlns="http://www.w3.org/2000/svg">
<path d="M1286.77 122.499H1072.62H733.383H519.235C519.235 122.499 189.007 122.485 185.004 122.499H0.000976562V58.5C45.6927 58.5 91.1193 50.4047 136.08 42.2642L185.004 33.4061C231.436 20.7457 279.532 12.3735 324.865 7.20832C408.109 -2.27662 482.036 -0.947718 519.235 4.49908C577.276 12.9974 733.384 52.4894 733.384 52.4894C788.719 62.0227 848.557 67.4031 904.5 67.3208C960.759 67.2381 1017.01 62.2938 1072.62 52.4894C1072.62 52.4894 1228.73 12.9973 1286.77 4.49905C1323.97 -0.947753 1397.89 -2.27665 1481.14 7.20829C1526.47 12.3735 1574.57 20.7457 1621 33.4061L1669.92 42.2642C1714.88 50.4047 1760.31 58.5 1806 58.5V122.499L1621 122.499C1616.99 122.485 1286.77 122.499 1286.77 122.499Z" fill="#E5DACF"/>
</svg>
